<?xml version="1.0" encoding="utf-8"?>
<!-- Generator: Adobe Illustrator 17.0.0, SVG Export Plug-In . SVG Version: 6.00 Build 0)  -->
<!DOCTYPE svg PUBLIC "-//W3C//DTD SVG 1.1//EN" "http://www.w3.org/Graphics/SVG/1.1/DTD/svg11.dtd">
<svg version="1.1" id="Layer_1" xmlns="http://www.w3.org/2000/svg" xmlns:xlink="http://www.w3.org/1999/xlink" x="0px" y="0px"
	 width="50px" height="50px" viewBox="0 0 50 50" enable-background="new 0 0 50 50" xml:space="preserve">
<g id="surface1">
	<path fill="#03A9F5" d="M20.955,42.734c0.1,0.203,0.307,0.331,0.533,0.329h4.25c0.226,0.002,0.434-0.126,0.534-0.329
		c0.348-0.704,1.067-1.148,1.852-1.145h9.411V28.318H27.479c-1.368-0.001-2.477-1.11-2.479-2.479v-3.42H10.254
		c-0.407,0-0.737,0.33-0.737,0.737v18.432h9.585C19.887,41.586,20.606,42.03,20.955,42.734z M12.466,36.428V30.53
		c0-0.407,0.33-0.737,0.737-0.737h20.644c0.407,0,0.737,0.33,0.737,0.737v5.898c0,0.407-0.33,0.737-0.737,0.737H13.204
		C12.796,37.165,12.466,36.835,12.466,36.428z"/>
	<path fill="#03A9F5" d="M6.568,21.682v19.907h1.475V23.157c0-1.221,0.99-2.212,2.212-2.212H25V19.47H8.78
		C7.559,19.47,6.568,20.461,6.568,21.682z"/>
	<path fill="#03A9F5" d="M13.941,35.691H33.11v-4.424H13.941V35.691z M24.263,32.741h1.475v1.475h-1.475V32.741z M21.314,32.741
		h1.475v1.475h-1.475V32.741z M18.364,32.741h1.475v1.475h-1.475V32.741z M15.415,32.741h1.475v1.475h-1.475V32.741z"/>
	<path fill="#03A9F5" d="M39.008,28.318h1.475v13.271h-1.475V28.318z"/>
	<path fill="#03A9F5" d="M5.831,46.012H41.22c0.814,0,1.475-0.66,1.475-1.475v-1.475H28.123c-0.226-0.001-0.433,0.126-0.533,0.329
		c-0.348,0.704-1.067,1.149-1.853,1.146h-4.25c-0.785,0.003-1.504-0.442-1.852-1.146c-0.101-0.202-0.308-0.33-0.534-0.329H4.356
		v1.475C4.356,45.352,5.016,46.012,5.831,46.012z"/>
	<path fill="#03A9F5" d="M36.796,20.945c0,0.407-0.33,0.737-0.737,0.737c-0.407,0-0.737-0.33-0.737-0.737s0.33-0.737,0.737-0.737
		C36.467,20.208,36.796,20.538,36.796,20.945z"/>
	<path fill="#03A9F5" d="M44.639,15.784h-17.16c-0.554,0-1.004,0.45-1.005,1.004v9.051c0,0.555,0.45,1.004,1.005,1.004h17.16
		c0.554,0,1.004-0.45,1.005-1.004v-9.051C45.643,16.234,45.193,15.784,44.639,15.784z M36.796,23.021v1.61h-1.475v-1.61
		c-1.016-0.359-1.625-1.398-1.443-2.459c0.182-1.062,1.103-1.838,2.18-1.838s1.998,0.776,2.18,1.838
		C38.421,21.623,37.812,22.662,36.796,23.021z"/>
	<path fill="#03A9F5" d="M16.153,15.047h1.475v1.475h-1.475V15.047z"/>
	<path fill="#03A9F5" d="M16.153,12.098h1.475v1.475h-1.475V12.098z"/>
	<path fill="#03A9F5" d="M16.153,9.149h1.475v1.475h-1.475V9.149z"/>
	<path fill="#03A9F5" d="M16.153,6.199h1.475v1.475h-1.475V6.199z"/>
	<path fill="#03A9F5" d="M19.102,6.199h1.475v1.475h-1.475V6.199z"/>
	<path fill="#03A9F5" d="M22.051,6.199h1.475v1.475h-1.475V6.199z"/>
	<path fill="#03A9F5" d="M25,6.199h1.475v1.475H25V6.199z"/>
	<path fill="#03A9F5" d="M44.169,14.309v-2.212c0-4.479-3.631-8.11-8.11-8.11s-8.11,3.631-8.11,8.11v2.212h2.949v-2.212
		c0-2.851,2.31-5.161,5.161-5.161c2.851,0,5.161,2.31,5.161,5.161v2.212H44.169z"/>
</g>
</svg>
