<?xml version="1.0" encoding="utf-8"?>
<!-- Generator: Adobe Illustrator 17.0.0, SVG Export Plug-In . SVG Version: 6.00 Build 0)  -->
<!DOCTYPE svg PUBLIC "-//W3C//DTD SVG 1.1//EN" "http://www.w3.org/Graphics/SVG/1.1/DTD/svg11.dtd">
<svg version="1.1" id="Layer_1" xmlns="http://www.w3.org/2000/svg" xmlns:xlink="http://www.w3.org/1999/xlink" x="0px" y="0px"
	 width="80px" height="80px" viewBox="0 0 80 80" enable-background="new 0 0 80 80" xml:space="preserve">
<g>
	<path fill="#FFFFFF" d="M25.161,34.76c-0.168-0.363-0.532-0.595-0.931-0.595h-0.002c-0.401,0.001-0.764,0.235-0.931,0.599
		L18.21,45.875c-0.236,0.515-0.009,1.124,0.506,1.36c0.139,0.063,0.284,0.093,0.427,0.093c0.389,0,0.762-0.222,0.934-0.599
		l1.275-2.787h5.803l1.294,2.791c0.238,0.515,0.848,0.739,1.362,0.5c0.514-0.238,0.738-0.848,0.5-1.362L25.161,34.76z M22.291,41.89
		l1.944-4.246l1.968,4.246H22.291z M22.291,41.89"/>
	<path fill="#FFFFFF" d="M37.014,34.038h-4.962c-0.567,0-1.026,0.459-1.026,1.026v11.238c0,0.567,0.46,1.026,1.026,1.026
		c0.567,0,1.027-0.459,1.027-1.026v-4.269h3.935c2.204,0,3.998-1.793,3.998-3.998C41.011,35.832,39.218,34.038,37.014,34.038
		L37.014,34.038z M37.014,39.98h-3.935v-3.89h3.935c1.072,0,1.945,0.873,1.945,1.945C38.959,39.108,38.086,39.98,37.014,39.98
		L37.014,39.98z M37.014,39.98"/>
	<path fill="#FFFFFF" d="M42.827,34.038c-0.567,0-1.027,0.459-1.027,1.026v11.238c0,0.567,0.459,1.026,1.027,1.026
		c0.567,0,1.026-0.459,1.026-1.026V35.064C43.854,34.498,43.394,34.038,42.827,34.038L42.827,34.038z M42.827,34.038"/>
	<path fill="#FFFFFF" d="M68.88,17.242H12.57c-1.018,0-1.845,0.827-1.845,1.845v41.63c0,1.017,0.827,1.844,1.845,1.844h56.311
		c1.017,0,1.844-0.827,1.844-1.844v-41.63C70.725,18.069,69.898,17.242,68.88,17.242L68.88,17.242z M55.085,50.839
		c0.816-1.925,2.693-3.169,4.784-3.169c0.696,0,1.377,0.139,2.023,0.412c2.636,1.117,3.873,4.17,2.757,6.806
		c-0.816,1.925-2.694,3.169-4.783,3.169h-0.001c-0.696,0-1.377-0.139-2.022-0.412c-1.277-0.541-2.267-1.546-2.788-2.832
		C54.534,53.527,54.545,52.116,55.085,50.839L55.085,50.839z M61.389,22.497c1.08,0,1.956,0.876,1.956,1.956
		c0,1.08-0.876,1.956-1.956,1.956c-1.08,0-1.956-0.876-1.956-1.956C59.433,23.373,60.309,22.497,61.389,22.497L61.389,22.497z
		 M55.522,22.497c1.079,0,1.955,0.876,1.955,1.956c0,1.08-0.876,1.956-1.955,1.956c-1.08,0-1.956-0.876-1.956-1.956
		C53.566,23.373,54.442,22.497,55.522,22.497L55.522,22.497z M49.656,22.497c1.079,0,1.954,0.876,1.954,1.956
		c0,1.08-0.875,1.956-1.954,1.956c-1.081,0-1.956-0.876-1.956-1.956C47.7,23.373,48.575,22.497,49.656,22.497L49.656,22.497z
		 M14.084,59.482v-27.25h53.283v10.622c-0.243-0.348-0.58-0.635-0.999-0.812l-3.255-1.378c-0.289-0.123-0.595-0.185-0.908-0.185
		c-0.941,0-1.785,0.559-2.151,1.424l-0.198,0.467c-1.456,0.021-2.902,0.356-4.22,0.978l-0.382-0.333
		c-0.186-0.16-0.395-0.291-0.621-0.386c-0.291-0.123-0.597-0.186-0.911-0.186c-0.675,0-1.317,0.294-1.761,0.806l-2.317,2.671
		c-0.408,0.471-0.608,1.073-0.565,1.695c0.045,0.623,0.329,1.19,0.8,1.597l0.382,0.332c-0.435,1.397-0.562,2.87-0.373,4.317
		l-0.434,0.261c-1.102,0.664-1.46,2.101-0.796,3.204l1.392,2.313H14.24C14.154,59.638,14.084,59.568,14.084,59.482L14.084,59.482z
		 M14.084,59.482"/>
</g>
</svg>
