<?xml version="1.0" encoding="utf-8"?>
<!-- Generator: Adobe Illustrator 17.0.0, SVG Export Plug-In . SVG Version: 6.00 Build 0)  -->
<!DOCTYPE svg PUBLIC "-//W3C//DTD SVG 1.1//EN" "http://www.w3.org/Graphics/SVG/1.1/DTD/svg11.dtd">
<svg version="1.1" id="Layer_1" xmlns="http://www.w3.org/2000/svg" xmlns:xlink="http://www.w3.org/1999/xlink" x="0px" y="0px"
	 width="50px" height="50px" viewBox="0 0 50 50" enable-background="new 0 0 50 50" xml:space="preserve">
<g>
	<path fill="#03A9F5" d="M39.402,6.335l-20.265,8.106v15.45l20.265,8.106V6.335z M39.402,6.335"/>
	<rect x="15.588" y="14.75" fill="#03A9F5" width="1.634" height="14.831"/>
	<path fill="#03A9F5" d="M13.673,29.581V14.75H7.09c-1.921,0.003-3.476,1.559-3.478,3.479v7.874c0.003,1.92,1.558,3.476,3.478,3.478
		H13.673z M13.673,29.581"/>
	<path fill="#03A9F5" d="M46.389,21.889c-0.003-2.716-2.204-4.917-4.92-4.92h-0.151v9.84h0.151
		C44.185,26.805,46.385,24.605,46.389,21.889L46.389,21.889z M46.389,21.889"/>
	<path fill="#03A9F5" d="M12.828,43.665c1.052,0,2.045-0.491,2.683-1.328c0.638-0.837,0.848-1.925,0.569-2.94l-2.177-7.901H7.09
		c-0.062,0-0.124-0.003-0.185-0.005l2.672,9.698C9.982,42.65,11.311,43.663,12.828,43.665L12.828,43.665z M12.828,43.665"/>
</g>
</svg>
