<?xml version="1.0" encoding="utf-8"?>
<!-- Generator: Adobe Illustrator 17.0.0, SVG Export Plug-In . SVG Version: 6.00 Build 0)  -->
<!DOCTYPE svg PUBLIC "-//W3C//DTD SVG 1.1//EN" "http://www.w3.org/Graphics/SVG/1.1/DTD/svg11.dtd">
<svg version="1.1" id="Layer_1" xmlns="http://www.w3.org/2000/svg" xmlns:xlink="http://www.w3.org/1999/xlink" x="0px" y="0px"
	 width="50px" height="50px" viewBox="0 0 50 50" enable-background="new 0 0 50 50" xml:space="preserve">
<g>
	<path fill="#03A9F5" d="M8.976,10.502l1.526-1.526l4.833,4.833l-1.526,1.526L8.976,10.502z M8.976,10.502"/>
	<rect x="17.053" y="6.632" fill="#03A9F5" width="2.158" height="5.396"/>
	<rect x="6.632" y="17.053" fill="#03A9F5" width="5.396" height="2.158"/>
	<path fill="#03A9F5" d="M34.665,36.191l1.526-1.526l4.833,4.833l-1.526,1.526L34.665,36.191z M34.665,36.191"/>
	<rect x="37.972" y="30.788" fill="#03A9F5" width="5.396" height="2.158"/>
	<g>
		<rect x="30.789" y="37.972" fill="#03A9F5" width="2.158" height="5.396"/>
		<path fill="#03A9F5" d="M31.857,18.143c-0.258-0.258-0.527-0.498-0.806-0.721l-4.667,4.667c0.324,0.154,0.627,0.364,0.894,0.632
			c1.262,1.262,1.262,3.316,0,4.579l-8.699,8.699c-1.262,1.262-3.317,1.262-4.578,0c-1.262-1.262-1.262-3.316,0-4.578l0.644-0.644
			c-1.342-2.406-1.783-5.184-1.322-7.834l-3.9,3.9c-3.787,3.787-3.787,9.948,0,13.735c3.787,3.787,9.948,3.787,13.735,0l8.699-8.699
			C35.644,28.091,35.644,21.93,31.857,18.143L31.857,18.143z M31.857,18.143"/>
		<path fill="#03A9F5" d="M40.577,9.423c-3.787-3.787-9.948-3.787-13.735,0l-8.699,8.699c-3.787,3.787-3.787,9.948,0,13.736
			c0.256,0.256,0.526,0.495,0.806,0.72l4.667-4.667c-0.324-0.154-0.627-0.364-0.894-0.632c-1.258-1.258-1.262-3.303-0.012-4.566
			c0,0,8.711-8.712,8.711-8.712c1.262-1.262,3.316-1.262,4.578,0c1.262,1.262,1.262,3.316,0,4.579l4.578,4.578
			C44.364,19.371,44.364,13.209,40.577,9.423L40.577,9.423z M40.577,9.423"/>
	</g>
</g>
</svg>
