<?xml version="1.0" encoding="utf-8"?>
<!-- Generator: Adobe Illustrator 17.0.0, SVG Export Plug-In . SVG Version: 6.00 Build 0)  -->
<!DOCTYPE svg PUBLIC "-//W3C//DTD SVG 1.1//EN" "http://www.w3.org/Graphics/SVG/1.1/DTD/svg11.dtd">
<svg version="1.1" id="Layer_1" xmlns="http://www.w3.org/2000/svg" xmlns:xlink="http://www.w3.org/1999/xlink" x="0px" y="0px"
	 width="50px" height="50px" viewBox="0 0 50 50" enable-background="new 0 0 50 50" xml:space="preserve">
<g>
	<g>
		<path fill="#FFFFFF" d="M6.536,19.314h29.406v4.103c0,0.185,0.067,0.345,0.203,0.481c0.136,0.135,0.296,0.203,0.481,0.203
			c0.2,0,0.363-0.064,0.491-0.192l6.839-6.839c0.128-0.128,0.192-0.292,0.192-0.491c0-0.2-0.064-0.364-0.192-0.492L37.139,9.27
			c-0.171-0.143-0.342-0.214-0.513-0.214c-0.199,0-0.363,0.064-0.491,0.192c-0.128,0.128-0.192,0.292-0.192,0.492v4.103H6.536
			c-0.185,0-0.345,0.068-0.481,0.203c-0.135,0.135-0.203,0.296-0.203,0.481v4.103c0,0.185,0.068,0.345,0.203,0.481
			S6.351,19.314,6.536,19.314z"/>
		<path fill="#FFFFFF" d="M43.464,30.687H14.058v-4.103c0-0.185-0.068-0.345-0.203-0.481c-0.135-0.135-0.296-0.203-0.481-0.203
			c-0.2,0-0.363,0.064-0.492,0.192L6.044,32.93c-0.128,0.129-0.192,0.292-0.192,0.492c0,0.185,0.064,0.342,0.192,0.47l6.817,6.839
			c0.171,0.142,0.342,0.213,0.513,0.213c0.185,0,0.345-0.068,0.481-0.203c0.135-0.136,0.203-0.296,0.203-0.481v-4.103h29.406
			c0.185,0,0.345-0.067,0.481-0.203c0.135-0.136,0.203-0.296,0.203-0.481V31.37c0-0.185-0.068-0.345-0.203-0.481
			C43.81,30.755,43.65,30.687,43.464,30.687z"/>
	</g>
</g>
</svg>
