<?xml version="1.0" encoding="utf-8"?>
<!-- Generator: Adobe Illustrator 17.0.0, SVG Export Plug-In . SVG Version: 6.00 Build 0)  -->
<!DOCTYPE svg PUBLIC "-//W3C//DTD SVG 1.1//EN" "http://www.w3.org/Graphics/SVG/1.1/DTD/svg11.dtd">
<svg version="1.1" id="Layer_1" xmlns="http://www.w3.org/2000/svg" xmlns:xlink="http://www.w3.org/1999/xlink" x="0px" y="0px"
	 width="50px" height="50px" viewBox="0 0 50 50" enable-background="new 0 0 50 50" xml:space="preserve">
<g>
	<path fill="#03A9F5" d="M6.859,20.47c0.862,0,1.724-0.012,2.585,0.007c0.27,0.006,0.388-0.076,0.47-0.334
		c0.687-2.155,1.794-4.072,3.313-5.747c2.385-2.63,5.319-4.302,8.804-4.973c2.98-0.574,5.895-0.303,8.724,0.804
		c0.116,0.045,0.273,0.189,0.275,0.289c0.02,1.025,0.012,2.051,0.012,3.119c-4.299-2.059-8.525-2.037-12.636,0.369
		c-2.536,1.484-4.303,3.667-5.403,6.447c0.972,0,1.906,0,2.941,0c-1.539,2.055-3.026,4.039-4.543,6.064
		c-0.103-0.131-0.19-0.236-0.271-0.344c-1.345-1.794-2.689-3.589-4.036-5.381c-0.068-0.091-0.156-0.166-0.235-0.248
		C6.859,20.518,6.859,20.494,6.859,20.47z"/>
	<path fill="#03A9F5" d="M6.859,33.51c0.088-0.314,0.159-0.634,0.268-0.941c0.693-1.958,2.644-3.213,4.667-3.011
		c2.116,0.212,3.759,1.764,4.076,3.851c0.369,2.428-1.312,4.765-3.692,5.132c-2.535,0.391-4.843-1.238-5.251-3.705
		c-0.011-0.066-0.045-0.128-0.068-0.192C6.859,34.266,6.859,33.888,6.859,33.51z M12.895,34.084c0.003-0.84-0.654-1.503-1.493-1.506
		c-0.839-0.003-1.504,0.656-1.507,1.494c-0.003,0.842,0.652,1.504,1.492,1.506C12.226,35.581,12.892,34.921,12.895,34.084z"/>
	<path fill="#03A9F5" d="M36.301,31.045c-0.765,0-1.447,0-2.222,0c1.524-2.034,3.005-4.009,4.526-6.039
		c1.504,2.005,2.986,3.98,4.517,6.02c-0.165,0.01-0.271,0.021-0.378,0.021c-0.909,0.001-1.819,0.01-2.728-0.005
		c-0.259-0.004-0.396,0.067-0.505,0.314c-1.361,3.083-3.484,5.508-6.367,7.249c-2.851,1.722-5.952,2.448-9.277,2.226
		c-1.578-0.106-3.097-0.462-4.575-1.016c-0.242-0.091-0.347-0.202-0.342-0.478c0.018-0.977,0.007-1.954,0.007-2.972
		c3.994,1.946,7.967,2.038,11.913,0.044C33.218,35.224,34.992,33.418,36.301,31.045z"/>
	<path fill="#03A9F5" d="M38.597,21.974c-2.505-0.007-4.526-2.03-4.525-4.529c0.001-2.497,2.024-4.525,4.526-4.536
		c2.499-0.011,4.554,2.05,4.544,4.556C43.131,19.966,41.1,21.981,38.597,21.974z M40.109,17.457c0.005-0.831-0.666-1.514-1.492-1.52
		c-0.829-0.006-1.507,0.666-1.512,1.498c-0.005,0.833,0.662,1.512,1.491,1.521C39.422,18.965,40.104,18.29,40.109,17.457z"/>
	<path fill="#03A9F5" d="M26.508,21.959c-1.018,0-1.991,0-2.99,0c-0.009-0.111-0.023-0.213-0.023-0.314
		c-0.002-1.238,0.007-2.475-0.007-3.713c-0.003-0.271,0.081-0.353,0.349-0.39c0.813-0.113,1.62-0.125,2.425,0.028
		c0.094,0.018,0.235,0.161,0.236,0.247C26.513,19.183,26.508,20.549,26.508,21.959z"/>
	<path fill="#03A9F5" d="M21.953,23.5c0,1.023,0,1.996,0,2.991c-0.095,0.008-0.174,0.021-0.253,0.021
		c-1.273,0.002-2.546-0.003-3.819,0.006c-0.216,0.001-0.302-0.051-0.337-0.284c-0.125-0.835-0.132-1.666,0.022-2.496
		c0.017-0.09,0.143-0.228,0.22-0.228C19.163,23.496,20.54,23.5,21.953,23.5z"/>
	<path fill="#03A9F5" d="M28.051,23.499c0.729,0,1.433,0,2.138,0c0.636,0,1.273,0.008,1.909-0.004
		c0.225-0.004,0.325,0.047,0.361,0.298c0.12,0.824,0.129,1.643-0.022,2.461c-0.018,0.095-0.131,0.247-0.202,0.248
		c-1.387,0.015-2.775,0.011-4.184,0.011C28.051,25.503,28.051,24.531,28.051,23.499z"/>
	<path fill="#03A9F5" d="M23.494,28.052c1.018,0,1.991,0,2.989,0c0.009,0.112,0.023,0.214,0.023,0.316
		c0.002,1.238-0.007,2.475,0.007,3.712c0.003,0.272-0.083,0.352-0.349,0.389c-0.812,0.113-1.62,0.125-2.425-0.028
		c-0.094-0.018-0.234-0.161-0.235-0.248C23.489,30.827,23.494,29.461,23.494,28.052z"/>
	<path fill="#03A9F5" d="M21.953,18.103c0,1.309,0,2.565,0,3.85c-1.271,0-2.537,0-3.853,0
		C18.915,20.183,20.176,18.922,21.953,18.103z"/>
	<path fill="#03A9F5" d="M28.044,21.954c0-1.28,0-2.538,0-3.85c1.778,0.81,3.036,2.073,3.859,3.85
		C30.598,21.954,29.342,21.954,28.044,21.954z"/>
	<path fill="#03A9F5" d="M18.095,28.055c1.31,0,2.567,0,3.852,0c0,1.268,0,2.534,0,3.848C20.176,31.096,18.922,29.828,18.095,28.055
		z"/>
	<path fill="#03A9F5" d="M28.048,31.909c0-1.309,0-2.566,0-3.85c1.271,0,2.537,0,3.852,0C31.086,29.829,29.824,31.088,28.048,31.909
		z"/>
	<path fill="#03A9F5" d="M26.492,23.521c0,0.996,0,1.97,0,2.969c-0.992,0-1.966,0-2.971,0c0-0.979,0-1.962,0-2.969
		C24.501,23.521,25.475,23.521,26.492,23.521z"/>
</g>
</svg>
