<?xml version="1.0" encoding="utf-8"?>
<!-- Generator: Adobe Illustrator 17.0.0, SVG Export Plug-In . SVG Version: 6.00 Build 0)  -->
<!DOCTYPE svg PUBLIC "-//W3C//DTD SVG 1.1//EN" "http://www.w3.org/Graphics/SVG/1.1/DTD/svg11.dtd">
<svg version="1.1" id="Layer_1" xmlns="http://www.w3.org/2000/svg" xmlns:xlink="http://www.w3.org/1999/xlink" x="0px" y="0px"
	 width="50px" height="50px" viewBox="0 0 50 50" enable-background="new 0 0 50 50" xml:space="preserve">
<g>
	<g>
		<path fill="#03A9F5" d="M44.878,21.329H32.431c-0.059,1.096-0.51,2.087-1.232,2.824h12.267v9.409L42,28.401
			c-0.172-0.607-0.727-1.026-1.358-1.026h-29.87v-7.854h8.652v-2.824H9.359c-0.781,0-1.412,0.632-1.412,1.412v9.266H5.123
			c-0.443,0-0.86,0.207-1.127,0.561c-0.267,0.354-0.353,0.812-0.232,1.238l4.029,14.191c0.295,1.04,1.245,1.757,2.325,1.757
			l33.755-0.006c1.335,0,2.416-1.082,2.416-2.417V22.741C46.29,21.962,45.658,21.329,44.878,21.329z"/>
		<path fill="#03A9F5" d="M46.29,46.313v-0.012C46.284,46.312,46.283,46.317,46.29,46.313z"/>
	</g>
	<path fill="#03A9F5" d="M19.381,12.588h2.867v8.503c0,0.863,0.698,1.562,1.56,1.562h4.261c0.863,0,1.563-0.698,1.563-1.562v-8.503
		h2.866c0.473,0,0.902-0.286,1.084-0.725c0.181-0.436,0.082-0.941-0.255-1.277l-6.559-6.557c-0.227-0.229-0.528-0.344-0.829-0.344
		c-0.299,0-0.6,0.115-0.829,0.344l-6.556,6.557c-0.338,0.336-0.436,0.84-0.254,1.277C18.481,12.302,18.908,12.588,19.381,12.588z"/>
</g>
</svg>
