<?xml version="1.0" encoding="utf-8"?>
<!-- Generator: Adobe Illustrator 17.0.0, SVG Export Plug-In . SVG Version: 6.00 Build 0)  -->
<!DOCTYPE svg PUBLIC "-//W3C//DTD SVG 1.1//EN" "http://www.w3.org/Graphics/SVG/1.1/DTD/svg11.dtd">
<svg version="1.1" id="Layer_1" xmlns="http://www.w3.org/2000/svg" xmlns:xlink="http://www.w3.org/1999/xlink" x="0px" y="0px"
	 width="50px" height="50px" viewBox="0 0 50 50" enable-background="new 0 0 50 50" xml:space="preserve">
<g>
	<path fill="#03A9F5" d="M47.098,18.199c-0.097,0.283-0.163,0.582-0.295,0.847c-0.58,1.159-1.53,1.839-2.819,1.909
		c-0.75,0.041-1.539,0.014-2.257-0.179c-1.354-0.364-2.193-1.521-2.297-2.919c-0.041-0.55-0.318-0.866-0.758-0.865
		c-0.429,0.001-0.741,0.294-0.753,0.824c-0.04,1.692-1.516,3.19-3.44,3.162c-0.655-0.01-1.336-0.023-1.957-0.202
		c-1.342-0.387-2.175-1.523-2.263-2.895c-0.036-0.566-0.333-0.899-0.791-0.888c-0.441,0.011-0.72,0.337-0.752,0.881
		c-0.098,1.642-1.408,2.994-3.05,3.083c-0.669,0.036-1.363,0.041-2.014-0.092c-1.475-0.301-2.432-1.474-2.551-2.978
		c-0.045-0.575-0.333-0.901-0.788-0.894c-0.441,0.007-0.72,0.333-0.753,0.876c-0.094,1.589-1.332,2.933-2.922,3.074
		c-0.708,0.063-1.448,0.056-2.143-0.077c-1.434-0.274-2.429-1.484-2.551-2.938c-0.011-0.129-0.019-0.259-0.046-0.385
		c-0.082-0.381-0.408-0.639-0.77-0.619c-0.368,0.02-0.662,0.303-0.716,0.687c-0.042,0.298-0.051,0.606-0.131,0.893
		c-0.296,1.056-0.985,1.789-1.997,2.167c-1.025,0.383-2.093,0.397-3.131,0.045c-1.124-0.382-1.853-1.17-2.166-2.327
		c-0.018-0.066-0.056-0.126-0.084-0.189c0-0.978,0-1.957,0-2.935c0.129,0.007,0.258,0.019,0.386,0.019
		c12.735,0.001,25.471,0.003,38.206,0.001c1.868,0,3.736-0.013,5.604-0.02C47.098,16.242,47.098,17.221,47.098,18.199z"/>
	<path fill="#03A9F5" d="M4.322,22.108c2.632,0.701,5.013,0.54,6.818-1.8c1.851,2.951,7.235,3.037,9.195,0.034
		c1.14,1.546,2.672,2.201,4.58,2.197c1.894-0.003,3.412-0.653,4.569-2.218c1.146,1.561,2.676,2.22,4.581,2.217
		c1.904-0.003,3.449-0.635,4.609-2.217c0.801,1.114,1.838,1.862,3.167,2.092c1.281,0.221,2.571,0.205,3.846-0.279
		c0,7.629,0,15.202,0,22.807c-13.791,0-27.563,0-41.366,0C4.322,37.335,4.322,29.733,4.322,22.108z M9.627,33.557
		c0.001,0,0.002,0,0.003,0c0,2.431-0.001,4.862,0.001,7.293c0,0.711,0.251,0.971,0.955,0.971c3.366,0.003,6.732,0.003,10.098,0
		c0.728,0,0.979-0.255,0.979-0.995c0.002-4.848,0.002-9.695,0-14.543c0-0.736-0.257-0.994-0.981-0.995
		c-3.352-0.002-6.703-0.002-10.055,0c-0.753,0-1,0.253-1,1.018C9.627,28.723,9.627,31.14,9.627,33.557z M34.373,27.759
		c0,0.001,0,0.001,0,0.002c-1.698,0-3.395-0.001-5.093,0.001c-0.686,0.001-0.94,0.25-0.941,0.932
		c-0.003,3.237-0.004,6.474-0.002,9.711c0,0.704,0.256,0.949,0.971,0.949c3.352,0.001,6.704,0.001,10.056,0
		c0.769,0,1.008-0.236,1.008-0.999c0.001-3.194,0.001-6.388,0-9.581c0-0.786-0.232-1.013-1.036-1.014
		C37.682,27.758,36.027,27.759,34.373,27.759z"/>
	<path fill="#03A9F5" d="M3.298,13.731c0.15-0.375,0.28-0.705,0.414-1.032C4.704,10.28,5.701,7.864,6.68,5.441
		C6.795,5.157,6.929,5.06,7.239,5.06C19.064,5.069,30.89,5.069,42.716,5.059c0.345,0,0.493,0.104,0.621,0.422
		c1.059,2.623,2.14,5.238,3.214,7.856c0.047,0.115,0.081,0.235,0.136,0.394C32.223,13.731,17.802,13.731,3.298,13.731z"/>
</g>
</svg>
