<?xml version="1.0" encoding="utf-8"?>
<!-- Generator: Adobe Illustrator 17.0.0, SVG Export Plug-In . SVG Version: 6.00 Build 0)  -->
<!DOCTYPE svg PUBLIC "-//W3C//DTD SVG 1.1//EN" "http://www.w3.org/Graphics/SVG/1.1/DTD/svg11.dtd">
<svg version="1.1" id="Layer_1" xmlns="http://www.w3.org/2000/svg" xmlns:xlink="http://www.w3.org/1999/xlink" x="0px" y="0px"
	 width="50px" height="50px" viewBox="0 0 50 50" enable-background="new 0 0 50 50" xml:space="preserve">
<g>
	<path fill="#03A9F5" d="M43.433,34.231c-0.419-0.152-0.847-0.307-1.301-0.47c-0.577-0.208-1.166-0.416-1.767-0.624
		c-0.582-0.201-1.126-0.372-1.617-0.507l-0.05-0.014l-0.034-0.04c-0.027-0.032-0.049-0.064-0.064-0.095
		c-0.024-0.046-0.036-0.117-0.036-0.21v-0.866c0-0.159,0.011-0.309,0.034-0.447c0.024-0.14,0.059-0.267,0.103-0.38
		c0.048-0.119,0.095-0.222,0.14-0.315l0.013-0.034c0.034-0.107,0.091-0.256,0.16-0.417c0.07-0.163,0.128-0.337,0.173-0.518
		c0.047-0.186,0.094-0.383,0.139-0.589c0.045-0.203,0.09-0.392,0.134-0.572l0.015-0.039c0.046-0.087,0.114-0.186,0.195-0.289
		c0.094-0.115,0.174-0.263,0.245-0.453c0.069-0.184,0.15-0.403,0.242-0.656c0.093-0.253,0.163-0.52,0.208-0.797
		c0.047-0.279,0.081-0.521,0.104-0.727c0.023-0.203,0.035-0.378,0.035-0.521c0-0.141-0.022-0.264-0.068-0.378
		c-0.033-0.083-0.054-0.159-0.064-0.226l-0.017-0.069l-0.058-0.05v-0.453c0-0.182,0.011-0.396,0.035-0.657
		c0.024-0.254,0.046-0.521,0.069-0.797c0.023-0.267,0.057-0.54,0.1-0.81c0.051-0.182,0.061-0.374,0.038-0.644
		c-0.023-0.275-0.069-0.578-0.139-0.902c-0.069-0.32-0.173-0.646-0.312-0.971c-0.136-0.316-0.347-0.646-0.61-0.953
		c-0.154-0.203-0.337-0.409-0.567-0.639c-0.229-0.229-0.509-0.427-0.832-0.589c-0.321-0.16-0.694-0.312-1.108-0.45
		c-0.419-0.14-0.904-0.231-1.483-0.278l-1.153,0.002c-0.531,0.046-1.016,0.139-1.427,0.276c-0.413,0.138-0.787,0.289-1.109,0.451
		c-0.322,0.161-0.602,0.36-0.831,0.589c-0.225,0.225-0.412,0.434-0.541,0.607c-0.287,0.337-0.499,0.666-0.637,0.987
		c-0.138,0.322-0.243,0.649-0.312,0.97c-0.069,0.326-0.116,0.629-0.138,0.898c-0.023,0.262-0.014,0.464,0.027,0.603
		c0.052,0.304,0.087,0.576,0.111,0.853c0.023,0.278,0.046,0.544,0.07,0.796c0.023,0.265,0.035,0.481,0.035,0.66v0.453l-0.067,0.058
		l-0.009,0.062c-0.01,0.068-0.031,0.143-0.062,0.222c-0.047,0.118-0.07,0.242-0.07,0.383c0,0.145,0.012,0.319,0.034,0.517
		c0.023,0.21,0.058,0.452,0.104,0.728c0.045,0.278,0.115,0.546,0.207,0.797c0.092,0.256,0.174,0.475,0.243,0.659
		c0.07,0.186,0.15,0.337,0.241,0.449c0.086,0.108,0.153,0.207,0.2,0.295l0.015,0.039c0.044,0.179,0.089,0.368,0.133,0.567
		c0.046,0.21,0.092,0.407,0.138,0.588c0.045,0.183,0.103,0.358,0.173,0.522c0.07,0.163,0.127,0.312,0.173,0.451l0.015,0.034
		c0.032,0.062,0.078,0.165,0.123,0.274c0.046,0.118,0.081,0.245,0.105,0.382c0.023,0.143,0.035,0.295,0.035,0.454v0.866
		c0,0.105-0.015,0.164-0.028,0.194c-0.023,0.046-0.046,0.08-0.073,0.111l-0.034,0.04l-0.05,0.014
		c-0.014,0.004-0.03,0.009-0.045,0.013c2.55,1.316,4.271,3.779,4.271,6.608c0,0.063-0.009,0.124-0.011,0.187h12.188v-0.673
		C47.533,36.705,45.42,34.891,43.433,34.231z"/>
	<path fill="#03A9F5" d="M28.209,33.082c-0.512-0.186-1.033-0.375-1.589-0.574c-0.705-0.254-1.423-0.508-2.156-0.761
		c-0.71-0.246-1.374-0.454-1.974-0.619l-0.062-0.017l-0.041-0.049c-0.033-0.039-0.059-0.078-0.079-0.116
		c-0.029-0.057-0.044-0.143-0.044-0.257v-1.057c0-0.194,0.014-0.377,0.042-0.546c0.03-0.171,0.072-0.326,0.125-0.464
		c0.059-0.145,0.116-0.271,0.171-0.385l0.016-0.041c0.042-0.131,0.111-0.312,0.195-0.509c0.086-0.199,0.157-0.412,0.211-0.632
		c0.057-0.227,0.114-0.467,0.169-0.719c0.055-0.247,0.11-0.478,0.164-0.698l0.018-0.048c0.057-0.106,0.139-0.228,0.238-0.353
		c0.115-0.14,0.212-0.321,0.3-0.553c0.084-0.224,0.183-0.492,0.295-0.801c0.113-0.308,0.198-0.635,0.254-0.973
		c0.057-0.34,0.099-0.636,0.126-0.887c0.029-0.248,0.043-0.462,0.043-0.636c0-0.172-0.027-0.323-0.083-0.462
		c-0.04-0.102-0.066-0.194-0.078-0.276l-0.021-0.085l-0.071-0.061V19.95c0-0.222,0.014-0.484,0.042-0.802
		c0.029-0.311,0.057-0.635,0.084-0.973c0.028-0.326,0.069-0.659,0.123-0.989c0.062-0.222,0.075-0.457,0.047-0.786
		c-0.027-0.335-0.085-0.705-0.169-1.101c-0.084-0.39-0.212-0.789-0.381-1.185c-0.166-0.386-0.424-0.789-0.745-1.163
		c-0.188-0.248-0.412-0.5-0.692-0.781c-0.279-0.28-0.621-0.521-1.015-0.719c-0.392-0.196-0.847-0.381-1.352-0.549
		c-0.512-0.171-1.104-0.282-1.81-0.339l-1.407,0.003c-0.648,0.056-1.24,0.169-1.741,0.337c-0.505,0.168-0.96,0.353-1.354,0.55
		c-0.393,0.197-0.734,0.439-1.014,0.719c-0.275,0.274-0.503,0.53-0.661,0.741c-0.35,0.411-0.609,0.813-0.777,1.205
		c-0.168,0.394-0.296,0.792-0.381,1.184c-0.085,0.398-0.142,0.767-0.168,1.096c-0.028,0.32-0.017,0.567,0.033,0.736
		c0.064,0.371,0.106,0.703,0.135,1.042c0.028,0.339,0.056,0.664,0.085,0.971c0.029,0.323,0.043,0.587,0.043,0.805v0.553
		l-0.082,0.071l-0.011,0.076c-0.012,0.083-0.038,0.174-0.076,0.271c-0.058,0.144-0.085,0.296-0.085,0.467
		c0,0.177,0.014,0.39,0.042,0.632c0.028,0.256,0.07,0.552,0.127,0.889c0.056,0.339,0.141,0.666,0.253,0.973
		c0.113,0.312,0.213,0.58,0.297,0.804c0.085,0.227,0.183,0.411,0.294,0.548c0.105,0.132,0.187,0.253,0.244,0.36l0.018,0.048
		c0.053,0.219,0.108,0.45,0.162,0.692c0.056,0.256,0.113,0.497,0.169,0.717c0.055,0.224,0.126,0.438,0.212,0.637
		c0.085,0.199,0.155,0.381,0.212,0.55l0.018,0.042c0.039,0.075,0.095,0.201,0.15,0.335c0.056,0.144,0.099,0.3,0.128,0.466
		c0.028,0.175,0.043,0.36,0.043,0.554v1.057c0,0.128-0.019,0.2-0.034,0.237c-0.029,0.057-0.056,0.097-0.089,0.136l-0.041,0.048
		l-0.061,0.017c-0.603,0.166-1.266,0.374-1.973,0.619C10.484,32,9.765,32.254,9.061,32.508c-0.555,0.199-1.075,0.388-1.588,0.574
		c-2.43,0.806-5.006,3.019-5.006,5.535v0.821h30.747v-0.821C33.214,36.101,30.636,33.888,28.209,33.082z"/>
</g>
</svg>
