<?xml version="1.0" encoding="utf-8"?>
<!-- Generator: Adobe Illustrator 17.0.0, SVG Export Plug-In . SVG Version: 6.00 Build 0)  -->
<!DOCTYPE svg PUBLIC "-//W3C//DTD SVG 1.1//EN" "http://www.w3.org/Graphics/SVG/1.1/DTD/svg11.dtd">
<svg version="1.1" id="Layer_1" xmlns="http://www.w3.org/2000/svg" xmlns:xlink="http://www.w3.org/1999/xlink" x="0px" y="0px"
	 width="50px" height="50px" viewBox="0 0 50 50" enable-background="new 0 0 50 50" xml:space="preserve">
<g>
	<path fill="#03A9F5" d="M44.976,25.313c-0.31,0.678-0.847,0.871-1.571,0.869c-6.488-0.017-12.977-0.009-19.465-0.008
		c-0.165,0-0.331,0-0.475,0c0-0.796,0-1.546,0-2.343c0.131,0,0.283,0,0.435,0c6.501,0,13.003,0.008,19.504-0.011
		c0.725-0.002,1.26,0.194,1.572,0.869C44.976,24.897,44.976,25.105,44.976,25.313z"/>
	<path fill="#03A9F5" d="M5.024,13.453c0.265-0.689,0.78-0.919,1.499-0.918c6.525,0.013,13.051,0.008,19.576,0.008
		c0.141,0,0.282,0,0.434,0c0,0.781,0,1.527,0,2.323c-0.107,0.005-0.244,0.017-0.382,0.017c-6.538,0.002-13.077-0.004-19.615,0.013
		c-0.718,0.002-1.232-0.218-1.512-0.896C5.024,13.817,5.024,13.635,5.024,13.453z"/>
	<path fill="#03A9F5" d="M5.024,36.004c0.28-0.677,0.791-0.897,1.51-0.894c4.43,0.02,8.86,0.01,13.29,0.01c0.152,0,0.305,0,0.451,0
		c0,0.789,0,1.535,0,2.344c-0.141,0-0.303,0-0.465,0c-4.43-0.001-8.86-0.01-13.29,0.005C5.8,37.471,5.29,37.236,5.024,36.55
		C5.024,36.368,5.024,36.186,5.024,36.004z"/>
	<path fill="#03A9F5" d="M44.976,36.55c-0.265,0.69-0.781,0.923-1.499,0.918c-2.77-0.019-5.539-0.008-8.309-0.008
		c-0.141,0-0.282,0-0.432,0c0-0.78,0-1.527,0-2.322c0.106-0.005,0.243-0.018,0.38-0.018c2.783-0.002,5.566,0.011,8.348-0.013
		c0.718-0.006,1.233,0.217,1.512,0.897C44.976,36.186,44.976,36.368,44.976,36.55z"/>
	<path fill="#03A9F5" d="M5.024,24.689c0.304-0.655,0.813-0.904,1.532-0.868c0.813,0.041,1.63,0.009,2.425,0.009
		c0,0.796,0,1.545,0,2.327c-0.976,0-1.974,0.026-2.969-0.011c-0.502-0.019-0.768-0.424-0.988-0.833
		C5.024,25.105,5.024,24.897,5.024,24.689z"/>
	<path fill="#03A9F5" d="M44.976,13.999c-0.278,0.679-0.79,0.925-1.51,0.893c-0.813-0.036-1.63-0.008-2.446-0.008
		c0-0.787,0-1.533,0-2.341c0.291,0,0.597,0,0.902,0c0.52,0,1.04,0.022,1.558-0.005c0.721-0.038,1.232,0.226,1.496,0.916
		C44.976,13.635,44.976,13.817,44.976,13.999z"/>
	<path fill="#03A9F5" d="M33.789,8.779c2.685,0.002,4.911,2.226,4.923,4.922c0.012,2.704-2.219,4.947-4.93,4.953
		c-2.702,0.006-4.954-2.243-4.946-4.939C28.845,11.008,31.083,8.777,33.789,8.779z"/>
	<path fill="#03A9F5" d="M32.43,36.288c-0.002,2.725-2.219,4.942-4.936,4.934c-2.712-0.008-4.921-2.238-4.915-4.96
		c0.006-2.7,2.213-4.903,4.92-4.912C30.213,31.34,32.432,33.562,32.43,36.288z"/>
	<path fill="#03A9F5" d="M16.239,20.074c2.718,0.007,4.939,2.242,4.922,4.951c-0.017,2.717-2.247,4.915-4.971,4.901
		c-2.695-0.013-4.908-2.238-4.905-4.93C11.288,22.289,13.524,20.067,16.239,20.074z"/>
</g>
</svg>
