<?xml version="1.0" encoding="utf-8"?>
<!-- Generator: Adobe Illustrator 17.0.0, SVG Export Plug-In . SVG Version: 6.00 Build 0)  -->
<!DOCTYPE svg PUBLIC "-//W3C//DTD SVG 1.1//EN" "http://www.w3.org/Graphics/SVG/1.1/DTD/svg11.dtd">
<svg version="1.1" id="Layer_1" xmlns="http://www.w3.org/2000/svg" xmlns:xlink="http://www.w3.org/1999/xlink" x="0px" y="0px"
	 width="50px" height="50px" viewBox="0 0 50 50" enable-background="new 0 0 50 50" xml:space="preserve">
<g>
	<g>
		<g>
			<path fill="#03A9F5" d="M39.313,25.36h6.157v-7.197H6.928c-0.878,0-1.69-0.254-2.399-0.667v21.058
				c0,3.307,2.691,5.997,5.997,5.997H45.47v-7.197h-6.157c-3.307,0-5.997-2.691-5.997-5.997S36.007,25.36,39.313,25.36z
				 M24.92,30.158c1.984,0,3.598,1.614,3.598,3.598c0,1.562-1.006,2.881-2.399,3.377v2.62h-2.399v-2.62
				c-1.393-0.497-2.399-1.816-2.399-3.377h2.399c0,0.662,0.538,1.199,1.199,1.199c0.662,0,1.199-0.538,1.199-1.199
				c0-0.662-0.538-1.199-1.199-1.199c-1.984,0-3.598-1.614-3.598-3.598c0-1.562,1.006-2.881,2.399-3.377v-2.62h2.399v2.62
				c1.393,0.497,2.399,1.816,2.399,3.377h-2.399c0-0.662-0.538-1.199-1.199-1.199c-0.662,0-1.199,0.538-1.199,1.199
				S24.258,30.158,24.92,30.158z"/>
		</g>
	</g>
	<g>
		<g>
			<path fill="#03A9F5" d="M39.313,27.759c-1.984,0-3.598,1.614-3.598,3.598s1.614,3.598,3.598,3.598h6.157v-7.197H39.313z
				 M40.513,32.557h-2.399v-2.399h2.399V32.557z"/>
		</g>
	</g>
	<g>
		<g>
			<polygon fill="#03A9F5" points="20.122,5.449 11.87,15.765 28.374,15.765 			"/>
		</g>
	</g>
	<g>
		<g>
			<polygon fill="#03A9F5" points="29.718,5.449 26.456,9.526 31.447,15.765 37.97,15.765 			"/>
		</g>
	</g>
	<g>
		<g>
			<polygon fill="#03A9F5" points="37.204,10.967 41.043,15.765 42.912,15.765 42.912,10.967 			"/>
		</g>
	</g>
	<g>
		<g>
			<path fill="#03A9F5" d="M6.928,10.967c-1.325,0-2.399,1.074-2.399,2.399c0,1.325,1.074,2.399,2.399,2.399h1.869l3.838-4.798
				H6.928z"/>
		</g>
	</g>
</g>
</svg>
