<?xml version="1.0" encoding="utf-8"?>
<!-- Generator: Adobe Illustrator 17.0.0, SVG Export Plug-In . SVG Version: 6.00 Build 0)  -->
<!DOCTYPE svg PUBLIC "-//W3C//DTD SVG 1.1//EN" "http://www.w3.org/Graphics/SVG/1.1/DTD/svg11.dtd">
<svg version="1.1" id="Layer_1" xmlns="http://www.w3.org/2000/svg" xmlns:xlink="http://www.w3.org/1999/xlink" x="0px" y="0px"
	 width="50px" height="50px" viewBox="0 0 50 50" enable-background="new 0 0 50 50" xml:space="preserve">
<g>
	<path fill="#03A9F5" d="M40.851,8.093H9.149c-0.583,0-1.057,0.473-1.057,1.057v14.794c0,0.583,0.473,1.057,1.057,1.057h3.884
		c0.841-1.473,1.405-2.897,1.752-4.227h-0.353c-1.167,0-2.114-0.947-2.114-2.114v-4.227c0-1.167,0.947-2.114,2.114-2.114h21.135
		c1.166,0,2.113,0.947,2.113,2.114v4.227c0,0.972-0.67,1.754-1.562,2.002c-0.247,1.372-0.655,2.828-1.257,4.339h5.99
		c0.583,0,1.057-0.473,1.057-1.057V9.15C41.908,8.567,41.434,8.093,40.851,8.093L40.851,8.093z M40.851,8.093"/>
	<path fill="#03A9F5" d="M34.204,14.434H17.279c0.374,2.748,0.284,7.249-2.69,12.129c-5.417,8.885-2.264,14.575-2.128,14.813
		c0.188,0.328,0.539,0.531,0.917,0.531h14.794c0.374,0,0.718-0.203,0.909-0.524c0.19-0.321,0.195-0.725,0.013-1.053
		c-0.11-0.196-2.625-4.92,2.095-12.666C34.403,22.391,34.591,17.557,34.204,14.434L34.204,14.434z M20.773,17.604
		c0-0.583,0.473-1.056,1.056-1.056c0.583,0,1.057,0.473,1.057,1.056v2.114c0,0.583-0.473,1.057-1.057,1.057
		c-0.583,0-1.056-0.473-1.056-1.057V17.604z M25,36.625c0,0.583-0.473,1.057-1.057,1.057c-0.583,0-1.057-0.473-1.057-1.057v-2.114
		c0-0.583,0.473-1.057,1.057-1.057c0.583,0,1.057,0.473,1.057,1.057V36.625z M22.886,30.813c-1.748,0-3.17-1.659-3.17-3.698
		c0-2.04,1.422-3.699,3.17-3.699c1.748,0,3.17,1.659,3.17,3.699C26.057,29.154,24.634,30.813,22.886,30.813L22.886,30.813z
		 M22.886,30.813"/>
</g>
</svg>
