<?xml version="1.0" encoding="utf-8"?>
<!-- Generator: Adobe Illustrator 17.0.0, SVG Export Plug-In . SVG Version: 6.00 Build 0)  -->
<!DOCTYPE svg PUBLIC "-//W3C//DTD SVG 1.1//EN" "http://www.w3.org/Graphics/SVG/1.1/DTD/svg11.dtd">
<svg version="1.1" id="Layer_1" xmlns="http://www.w3.org/2000/svg" xmlns:xlink="http://www.w3.org/1999/xlink" x="0px" y="0px"
	 width="50px" height="50px" viewBox="0 0 50 50" enable-background="new 0 0 50 50" xml:space="preserve">
<g>
	<g id="c187_arrow">
		<path id="_x3C_Group_x3E__5_" fill="#03A9F5" d="M24.748,4.158c-0.017,0-0.024,0-0.03,0c-0.013,0-0.013,0-0.017,0c0,0,0,0-0.005,0
			l0,0c-0.005,0-0.012,0-0.019,0c-0.003,0-0.003,0-0.003,0s0,0-0.007,0c-0.045-0.01-0.059-0.003-0.093-0.003
			c-5.394,0-10.642,2.139-14.521,5.9l-4.264-4.33c-0.207-0.202-0.52-0.266-0.776-0.158C4.745,5.68,4.567,5.936,4.567,6.229v14.06
			c0,0.396,0.322,0.716,0.712,0.716h13.888c0.008,0,0.024,0,0.034,0c0.394,0,0.714-0.318,0.714-0.716
			c0-0.263-0.143-0.495-0.357-0.618l-4.212-4.263c2.498-2.412,5.757-3.732,9.33-3.732c7.292,0.047,13.233,6.018,13.233,13.431
			c-0.056,7.286-6.029,13.216-13.44,13.216l0.017,7.525h0.103c11.417,0,20.771-9.293,20.845-20.843
			C45.433,13.594,36.164,4.254,24.748,4.158z"/>
	</g>
</g>
</svg>
