<?xml version="1.0" encoding="utf-8"?>
<!-- Generator: Adobe Illustrator 17.0.0, SVG Export Plug-In . SVG Version: 6.00 Build 0)  -->
<!DOCTYPE svg PUBLIC "-//W3C//DTD SVG 1.1//EN" "http://www.w3.org/Graphics/SVG/1.1/DTD/svg11.dtd">
<svg version="1.1" id="Layer_1" xmlns="http://www.w3.org/2000/svg" xmlns:xlink="http://www.w3.org/1999/xlink" x="0px" y="0px"
	 width="50px" height="50px" viewBox="0 0 50 50" enable-background="new 0 0 50 50" xml:space="preserve">
<g>
	<g>
		<g>
			<path fill="#03A9F5" d="M41.304,34.452c-1.358,0-2.619-0.674-3.373-1.805l-1.768-2.652c-1.587,3.477-4.864,6.128-8.73,6.915
				c-0.03,0.005-0.059,0.012-0.088,0.02c-1.528,0.301-3.123,0.303-4.725-0.003c-4.257-0.854-7.767-3.869-9.177-7.88h0.658
				c1.075,0,1.722-1.202,1.124-2.101L9.821,18.84c-0.501-0.752-1.747-0.752-2.248,0l-5.404,8.107
				c-0.596,0.891,0.043,2.101,1.124,2.101h1.758c1.848,9.06,10.02,16.213,20.032,16.213c5.478,0,10.887-2.265,14.763-6.377
				c1.361-1.457,2.502-3.124,3.398-4.929C42.656,34.275,41.993,34.452,41.304,34.452z"/>
		</g>
	</g>
	<g>
		<g>
			<path fill="#03A9F5" d="M46.708,20.941h-1.756c-2.093-10.3-12.046-17.41-22.68-16.031c-7.073,1.04-12.62,5.376-15.49,11.173
				c1.758-0.862,4.153-0.444,5.288,1.259l1.775,2.663c1.557-3.407,4.738-6.019,8.504-6.862c6.316-1.326,12.202,2.173,14.205,7.799
				h-0.655c-1.081,0-1.72,1.209-1.124,2.101l5.404,8.107c0.534,0.801,1.714,0.801,2.248,0l5.404-8.107
				C48.43,22.143,47.783,20.941,46.708,20.941z"/>
		</g>
	</g>
	<g>
		<g>
			<path fill="#03A9F5" d="M27.867,24.832c-0.764-0.767-1.783-1.189-2.867-1.189c-0.362,0-0.701-0.14-0.957-0.397
				c-0.518-0.515-0.535-1.375,0.003-1.911c0.507-0.509,1.401-0.509,1.908,0c0.527,0.53,1.381,0.528,1.911,0.003
				c0.529-0.527,0.529-1.383,0.003-1.911c-0.429-0.43-0.956-0.709-1.516-0.898v-1.642c0-0.747-0.604-1.351-1.351-1.351
				s-1.351,0.604-1.351,1.351v1.642c-0.559,0.188-1.086,0.466-1.513,0.895c-1.59,1.584-1.586,4.154-0.003,5.732
				c0.764,0.767,1.783,1.189,2.867,1.189c0.362,0,0.701,0.14,0.957,0.397c0.518,0.515,0.535,1.375-0.003,1.911
				c-0.507,0.509-1.401,0.509-1.908,0c-0.528-0.529-1.383-0.529-1.911-0.003c-0.529,0.527-0.529,1.383-0.003,1.911
				c0.433,0.435,0.953,0.744,1.516,0.943v1.597c0,0.747,0.604,1.351,1.351,1.351c0.747,0,1.351-0.604,1.351-1.351v-1.596
				c0.562-0.199,1.082-0.508,1.513-0.941C29.454,28.98,29.45,26.41,27.867,24.832z"/>
		</g>
	</g>
</g>
</svg>
