<?xml version="1.0" encoding="utf-8"?>
<!-- Generator: Adobe Illustrator 17.0.0, SVG Export Plug-In . SVG Version: 6.00 Build 0)  -->
<!DOCTYPE svg PUBLIC "-//W3C//DTD SVG 1.1//EN" "http://www.w3.org/Graphics/SVG/1.1/DTD/svg11.dtd">
<svg version="1.1" id="Layer_1" xmlns="http://www.w3.org/2000/svg" xmlns:xlink="http://www.w3.org/1999/xlink" x="0px" y="0px"
	 width="50px" height="50px" viewBox="0 0 50 50" enable-background="new 0 0 50 50" xml:space="preserve">
<path fill="#C1C9D0" d="M39.475,36.283c-0.715-0.259-1.443-0.523-2.218-0.801c-0.984-0.355-1.987-0.709-3.01-1.063
	c-0.991-0.343-1.918-0.634-2.755-0.864l-0.086-0.024l-0.057-0.068c-0.046-0.055-0.083-0.109-0.11-0.162
	c-0.041-0.079-0.061-0.2-0.061-0.359v-1.476c0-0.27,0.02-0.527,0.058-0.763c0.041-0.239,0.1-0.455,0.175-0.647
	c0.082-0.202,0.162-0.378,0.239-0.537l0.023-0.057c0.058-0.183,0.155-0.436,0.272-0.71c0.12-0.278,0.219-0.575,0.295-0.883
	c0.079-0.317,0.16-0.653,0.236-1.004c0.077-0.345,0.154-0.668,0.229-0.974l0.026-0.067c0.079-0.148,0.194-0.318,0.332-0.492
	c0.16-0.196,0.296-0.448,0.418-0.773c0.117-0.313,0.256-0.688,0.412-1.119c0.158-0.43,0.277-0.887,0.355-1.358
	c0.079-0.475,0.138-0.888,0.176-1.239c0.04-0.346,0.06-0.645,0.06-0.889c0-0.24-0.038-0.451-0.116-0.645
	c-0.056-0.142-0.092-0.271-0.109-0.385l-0.03-0.118l-0.099-0.086V17.95c0-0.309,0.019-0.675,0.059-1.119
	c0.04-0.434,0.079-0.887,0.118-1.359c0.039-0.455,0.097-0.92,0.171-1.381c0.087-0.309,0.105-0.637,0.065-1.097
	c-0.038-0.468-0.118-0.985-0.237-1.537c-0.117-0.545-0.295-1.101-0.532-1.655c-0.232-0.539-0.592-1.101-1.04-1.624
	c-0.262-0.346-0.575-0.698-0.967-1.09c-0.39-0.39-0.867-0.728-1.417-1.004c-0.547-0.273-1.183-0.532-1.888-0.767
	c-0.715-0.238-1.541-0.393-2.527-0.474L23.97,4.848c-0.905,0.078-1.731,0.237-2.431,0.47c-0.705,0.235-1.341,0.493-1.89,0.768
	c-0.549,0.275-1.025,0.613-1.416,1.003c-0.383,0.383-0.702,0.74-0.922,1.034c-0.489,0.574-0.85,1.135-1.085,1.682
	c-0.235,0.55-0.413,1.106-0.531,1.653c-0.118,0.556-0.198,1.071-0.235,1.531c-0.039,0.447-0.023,0.792,0.046,1.027
	c0.089,0.517,0.148,0.982,0.189,1.454c0.039,0.474,0.078,0.927,0.118,1.356c0.04,0.452,0.059,0.819,0.059,1.124v0.772l-0.114,0.099
	l-0.015,0.106c-0.017,0.116-0.052,0.243-0.106,0.378c-0.08,0.2-0.119,0.413-0.119,0.653c0,0.247,0.02,0.544,0.059,0.882
	c0.039,0.358,0.098,0.771,0.177,1.241c0.078,0.473,0.196,0.93,0.353,1.358c0.158,0.436,0.297,0.81,0.414,1.123
	c0.118,0.317,0.256,0.574,0.41,0.764c0.147,0.184,0.261,0.353,0.341,0.502l0.025,0.067c0.074,0.306,0.151,0.628,0.227,0.966
	c0.078,0.357,0.158,0.693,0.236,1.002c0.077,0.313,0.176,0.611,0.296,0.889c0.118,0.278,0.216,0.532,0.295,0.768l0.025,0.058
	c0.054,0.105,0.133,0.28,0.209,0.467c0.079,0.201,0.138,0.418,0.179,0.65c0.04,0.244,0.06,0.503,0.06,0.773v1.476
	c0,0.179-0.026,0.279-0.048,0.331c-0.04,0.079-0.078,0.136-0.124,0.19l-0.057,0.067l-0.086,0.024
	c-0.841,0.232-1.768,0.522-2.754,0.864c-1.024,0.354-2.028,0.708-3.01,1.062c-0.774,0.278-1.501,0.542-2.217,0.802
	c-3.392,1.126-6.988,4.215-6.988,7.727v1.147h42.923V44.01C46.462,40.498,42.862,37.407,39.475,36.283z"/>
<path fill="#C1C9D0" d="M5.953,42.863l0.112-0.37c0.287-0.945,0.809-1.813,1.51-2.508c0.597-0.593,1.305-1.021,2.046-1.24
	l0.043-0.015c0.461-0.191,1.082-0.418,1.78-0.652c0.827-0.275,1.672-0.57,2.539-0.885c0.353-0.128,0.717-0.257,1.081-0.385
	l1.573-0.558c0.911-0.316,1.748-0.59,2.488-0.814c0.442-0.09,0.759-0.266,0.996-0.543c0.236-0.275,0.415-0.553,0.532-0.827
	c0.118-0.275,0.177-0.573,0.177-0.887v-1.712c0-0.269-0.02-0.569-0.059-0.89c-0.041-0.313-0.101-0.631-0.178-0.943
	c-0.075-0.299-0.189-0.605-0.338-0.91c-0.104-0.291-0.199-0.535-0.312-0.801c-0.121-0.282-0.218-0.553-0.296-0.827
	c-0.078-0.272-0.158-0.567-0.236-0.886c-0.078-0.307-0.117-0.624-0.117-0.94c0-0.093-0.007-0.147-0.012-0.175l-0.015-0.08
	l-0.053-0.06c-0.017-0.021-0.043-0.052-0.08-0.123l-0.081-0.152h-0.13l-0.085-0.122c-0.039-0.055-0.085-0.131-0.137-0.236
	l-0.293-0.586c-0.118-0.236-0.234-0.526-0.354-0.885c-0.121-0.361-0.22-0.783-0.305-1.289c-0.069-0.265-0.128-0.541-0.168-0.78
	c-0.038-0.223-0.058-0.427-0.058-0.587c0-0.161,0.019-0.274,0.06-0.356c0.041-0.081,0.044-0.131,0.043-0.142l-0.024-0.145
	l0.203-0.229l-0.036-0.212l0.016-0.061c0.062-0.233,0.093-0.534,0.093-0.92c0-0.42-0.02-0.898-0.059-1.42
	c-0.041-0.508-0.079-1.02-0.118-1.534c-0.038-0.485-0.096-0.968-0.17-1.434l-0.033-0.103c-0.055-0.122-0.071-0.351-0.033-0.646
	c0.04-0.318,0.1-0.675,0.178-1.063c0.076-0.387,0.215-0.804,0.413-1.239c0.189-0.417,0.437-0.858,0.736-1.311
	c0.343-0.357,0.661-0.657,1.033-0.989c0.354-0.314,0.751-0.572,1.18-0.768c0.436-0.197,0.913-0.356,1.418-0.473
	c0.487-0.113,1.009-0.21,1.552-0.289l1.966-0.006c0.605,0.082,1.126,0.178,1.633,0.295c0.505,0.116,0.981,0.275,1.415,0.472
	c0.431,0.196,0.828,0.454,1.181,0.767c0.349,0.311,0.674,0.616,0.966,0.907c0.357,0.52,0.61,0.963,0.807,1.397
	c0.197,0.432,0.336,0.85,0.413,1.241c0.078,0.383,0.137,0.741,0.177,1.061c0.038,0.295,0.022,0.524-0.046,0.679l-0.027,0.102
	c-0.066,0.427-0.124,0.911-0.163,1.404c-0.038,0.51-0.077,1.021-0.118,1.535c-0.039,0.52-0.059,0.996-0.059,1.414
	c0,0.411,0.034,0.726,0.105,0.962l0.012,0.081l0,0.197l0.118,0.117l0.001,0.118c0,0.078,0.021,0.157,0.062,0.242
	c0.036,0.069,0.056,0.185,0.056,0.348c0,0.161-0.02,0.361-0.059,0.593c-0.038,0.232-0.098,0.508-0.188,0.872
	c-0.065,0.413-0.165,0.833-0.284,1.191c-0.121,0.36-0.237,0.65-0.354,0.886l-0.297,0.595c-0.049,0.099-0.094,0.174-0.132,0.228
	l-0.086,0.122h-0.13l-0.081,0.152c-0.026,0.05-0.053,0.09-0.079,0.12l-0.056,0.063l-0.013,0.081
	c-0.005,0.03-0.012,0.083-0.012,0.175c0,0.317-0.04,0.637-0.12,0.95c-0.075,0.31-0.155,0.605-0.235,0.883
	c-0.075,0.269-0.172,0.54-0.296,0.827c-0.111,0.26-0.205,0.504-0.282,0.73c-0.175,0.368-0.29,0.679-0.366,0.98
	c-0.076,0.308-0.136,0.627-0.177,0.947c-0.039,0.316-0.059,0.613-0.059,0.882v1.712c0,0.315,0.059,0.612,0.177,0.885
	c0.118,0.275,0.296,0.553,0.53,0.826c0.23,0.269,0.547,0.453,0.891,0.519c0.816,0.241,1.629,0.506,2.589,0.839l1.701,0.604
	c0.323,0.114,0.645,0.228,0.958,0.342c0.868,0.316,1.713,0.611,2.538,0.885c0.704,0.236,1.318,0.46,1.824,0.668l0.042,0.014
	c0.698,0.204,1.415,0.642,2.004,1.226c0.701,0.695,1.223,1.561,1.511,2.507l0.113,0.37H5.953z"/>
</svg>
