<?xml version="1.0" encoding="utf-8"?>
<!-- Generator: Adobe Illustrator 17.0.0, SVG Export Plug-In . SVG Version: 6.00 Build 0)  -->
<!DOCTYPE svg PUBLIC "-//W3C//DTD SVG 1.1//EN" "http://www.w3.org/Graphics/SVG/1.1/DTD/svg11.dtd">
<svg version="1.1" id="Layer_1" xmlns="http://www.w3.org/2000/svg" xmlns:xlink="http://www.w3.org/1999/xlink" x="0px" y="0px"
	 width="50px" height="50px" viewBox="0 0 50 50" enable-background="new 0 0 50 50" xml:space="preserve">
<circle fill="#FFFFFF" cx="39.434" cy="5.674" r="1.203"/>
<path fill="#FFFFFF" d="M32.763,11.704l-2.849-1.424L28.49,7.43c-0.409-0.815-1.746-0.815-2.152,0l-1.424,2.85l-2.85,1.424
	c-0.884,0.441-0.884,1.711,0,2.152l2.85,1.424l1.424,2.85c0.439,0.88,1.706,0.889,2.152,0l1.425-2.85l2.849-1.424
	C33.647,13.412,33.647,12.147,32.763,11.704z"/>
<path fill="#FFFFFF" d="M44.326,23.877h-4.811v1.203c0,2.654,2.158,4.811,4.811,4.811h1.203V25.08
	C45.529,24.415,44.991,23.877,44.326,23.877z"/>
<path fill="#FFFFFF" d="M16.58,34.703c0-5.97,3.778-10.826,8.42-10.826H12.891v1.203c0,3.98-3.237,7.217-7.217,7.217H4.471v4.811
	h1.203c3.98,0,7.217,3.237,7.217,7.217v1.203H25C20.358,45.529,16.58,40.673,16.58,34.703z"/>
<path fill="#FFFFFF" d="M5.674,23.877c-0.665,0-1.203,0.538-1.203,1.203v4.811h1.203c2.654,0,4.811-2.158,4.811-4.811v-1.203H5.674z
	"/>
<path fill="#FFFFFF" d="M5.674,39.514H4.471v4.811c0,0.665,0.538,1.203,1.203,1.203h4.811v-1.203
	C10.486,41.672,8.328,39.514,5.674,39.514z"/>
<path fill="#FFFFFF" d="M44.326,39.514c-2.654,0-4.811,2.158-4.811,4.811v1.203h4.811c0.665,0,1.203-0.538,1.203-1.203v-4.811
	H44.326z"/>
<path fill="#FFFFFF" d="M44.326,32.297c-3.98,0-7.217-3.237-7.217-7.217v-1.203H25c4.642,0,8.42,4.856,8.42,10.826
	S29.642,45.529,25,45.529h12.109v-1.203c0-3.98,3.237-7.217,7.217-7.217h1.203v-4.811H44.326z"/>
<path fill="#FFFFFF" d="M15.377,16.5h-1.203v-1.203c0-0.665-0.538-1.203-1.203-1.203c-0.665,0-1.203,0.538-1.203,1.203V16.5h-1.203
	c-0.665,0-1.203,0.538-1.203,1.203s0.538,1.203,1.203,1.203h1.203v1.203c0,0.665,0.538,1.203,1.203,1.203
	c0.665,0,1.203-0.538,1.203-1.203v-1.203h1.203c0.665,0,1.203-0.538,1.203-1.203S16.042,16.5,15.377,16.5z"/>
<path fill="#FFFFFF" d="M25,26.283c-3.316,0-6.014,3.778-6.014,8.42c0,4.642,2.698,8.42,6.014,8.42c3.316,0,6.014-3.778,6.014-8.42
	C31.014,30.061,28.316,26.283,25,26.283z M26.161,40.511c0.013,0.07,0.042,0.133,0.042,0.206c0,0.664-0.539,1.203-1.203,1.203
	s-1.203-0.539-1.203-1.203c0-0.067,0.028-0.125,0.038-0.189c-0.807-0.263-1.578-0.793-2.238-1.58
	c-0.428-0.509-0.362-1.267,0.148-1.694c0.51-0.426,1.27-0.359,1.694,0.148c0.637,0.756,1.359,1.062,1.972,0.837
	c0.473-0.173,0.792-0.627,0.792-1.131c0-0.664-0.539-1.203-1.203-1.203c-1.99,0-3.609-1.619-3.609-3.609
	c0-1.453,0.865-2.758,2.203-3.324c0.128-0.055,0.26-0.092,0.39-0.131c-0.007-0.053-0.031-0.099-0.031-0.154
	c0-0.664,0.539-1.203,1.203-1.203s1.203,0.539,1.203,1.203c0,0.085-0.032,0.16-0.049,0.24c0.586,0.216,1.153,0.57,1.665,1.066
	c0.477,0.462,0.489,1.223,0.026,1.701c-0.462,0.477-1.224,0.487-1.701,0.026c-0.585-0.566-1.232-0.762-1.768-0.533
	c-0.446,0.189-0.735,0.624-0.735,1.109c0,0.664,0.539,1.203,1.203,1.203c1.99,0,3.609,1.619,3.609,3.609
	C28.609,38.678,27.586,40.02,26.161,40.511z"/>
</svg>
