<?xml version="1.0" encoding="utf-8"?>
<!-- Generator: Adobe Illustrator 17.0.0, SVG Export Plug-In . SVG Version: 6.00 Build 0)  -->
<!DOCTYPE svg PUBLIC "-//W3C//DTD SVG 1.1//EN" "http://www.w3.org/Graphics/SVG/1.1/DTD/svg11.dtd">
<svg version="1.1" id="Layer_1" xmlns="http://www.w3.org/2000/svg" xmlns:xlink="http://www.w3.org/1999/xlink" x="0px" y="0px"
	 width="50px" height="50px" viewBox="0 0 50 50" enable-background="new 0 0 50 50" xml:space="preserve">
<g>
	<path fill="#03A9F5" d="M10.703,23.729c0.961,0,1.831-0.386,2.474-1.005l3.527,1.763c-0.018,0.144-0.044,0.285-0.044,0.433
		c0,1.971,1.603,3.574,3.574,3.574s3.574-1.603,3.574-3.574c0-0.55-0.135-1.065-0.358-1.531l4.784-4.784
		c0.466,0.223,0.981,0.358,1.531,0.358c1.971,0,3.574-1.603,3.574-3.574c0-0.371-0.073-0.722-0.178-1.059l4.157-3.117
		c0.567,0.379,1.247,0.601,1.979,0.601c1.971,0,3.574-1.603,3.574-3.574s-1.603-3.574-3.574-3.574s-3.574,1.603-3.574,3.574
		c0,0.371,0.073,0.722,0.178,1.059l-4.157,3.117c-0.567-0.379-1.247-0.601-1.979-0.601c-1.971,0-3.574,1.603-3.574,3.574
		c0,0.55,0.135,1.065,0.358,1.531l-4.784,4.784c-0.466-0.223-0.981-0.358-1.531-0.358c-0.961,0-1.831,0.386-2.474,1.005
		l-3.527-1.763c0.018-0.144,0.044-0.285,0.044-0.433c0-1.971-1.603-3.574-3.574-3.574s-3.574,1.603-3.574,3.574
		S8.732,23.729,10.703,23.729z"/>
	<path fill="#03A9F5" d="M44.142,42.951h-1.271V17.772c0-0.658-0.533-1.191-1.191-1.191h-4.766c-0.658,0-1.191,0.533-1.191,1.191
		v25.178H33.34v-18.03c0-0.658-0.533-1.191-1.191-1.191h-4.766c-0.658,0-1.191,0.533-1.191,1.191v18.03h-2.383v-8.499
		c0-0.658-0.533-1.191-1.191-1.191h-4.766c-0.658,0-1.191,0.533-1.191,1.191v8.499h-2.383V29.686c0-0.658-0.533-1.191-1.191-1.191
		H8.32c-0.658,0-1.191,0.533-1.191,1.191v13.264H5.858c-0.658,0-1.191,0.533-1.191,1.191c0,0.658,0.533,1.191,1.191,1.191h38.284
		c0.658,0,1.191-0.533,1.191-1.191C45.333,43.484,44.8,42.951,44.142,42.951z"/>
</g>
</svg>
