<?xml version="1.0" encoding="utf-8"?>
<!-- Generator: Adobe Illustrator 17.0.0, SVG Export Plug-In . SVG Version: 6.00 Build 0)  -->
<!DOCTYPE svg PUBLIC "-//W3C//DTD SVG 1.1//EN" "http://www.w3.org/Graphics/SVG/1.1/DTD/svg11.dtd">
<svg version="1.1" id="Layer_1" xmlns="http://www.w3.org/2000/svg" xmlns:xlink="http://www.w3.org/1999/xlink" x="0px" y="0px"
	 width="50px" height="50px" viewBox="0 0 50 50" enable-background="new 0 0 50 50" xml:space="preserve">
<g>
	<g>
		<path fill="#03A9F5" d="M19.874,21.424c2.866,1.655,7.506,1.655,10.356,0c2.858-1.655,2.832-4.342-0.034-5.997
			c-2.866-1.654-7.506-1.654-10.355,0C16.992,17.082,17.009,19.761,19.874,21.424L19.874,21.424z M21.188,18.558
			c0.222-0.068,0.435-0.145,0.648-0.213c0.162-0.051,0.256-0.06,0.324-0.026c0.043,0.026,0.068,0.06,0.102,0.12
			c0.145,0.273,0.384,0.512,0.682,0.733c0.052,0.043,0.103,0.077,0.162,0.111c0.162,0.094,0.341,0.162,0.563,0.213
			c0.554,0.119,1.049-0.094,0.99-0.435c-0.017-0.119-0.077-0.222-0.154-0.333c-0.188-0.282-0.426-0.546-0.554-0.836
			c-0.205-0.478-0.111-0.904,0.546-1.245c0.75-0.384,1.578-0.401,2.465-0.171c0.358,0.102,0.358,0.102,0.64-0.06
			c0.094-0.052,0.188-0.111,0.281-0.162c0.213-0.12,0.29-0.12,0.503,0c0.068,0.034,0.128,0.077,0.196,0.111
			c0.443,0.256,0.443,0.256,0.008,0.521c-0.316,0.179-0.316,0.179-0.051,0.392c0.204,0.162,0.358,0.333,0.486,0.52
			c0.068,0.102,0.026,0.179-0.136,0.23c-0.247,0.077-0.495,0.162-0.742,0.239c-0.153,0.043-0.247,0.051-0.315,0.017
			c-0.034-0.025-0.068-0.059-0.102-0.111c-0.162-0.264-0.41-0.487-0.742-0.682c-0.043-0.026-0.094-0.051-0.145-0.077
			c-0.111-0.051-0.213-0.102-0.35-0.136c-0.478-0.111-0.896,0.068-0.836,0.366c0.026,0.154,0.111,0.29,0.213,0.426
			c0.171,0.239,0.35,0.478,0.478,0.725c0.401,0.802-0.469,1.587-1.859,1.663c-0.503,0.026-0.981-0.034-1.416-0.179
			c-0.187-0.059-0.332-0.051-0.486,0.043c-0.145,0.094-0.307,0.179-0.452,0.264c-0.136,0.077-0.281,0.085-0.418,0.009
			c-0.103-0.052-0.196-0.111-0.299-0.162c-0.068-0.043-0.137-0.077-0.205-0.12c-0.145-0.085-0.128-0.171,0.008-0.256
			c0.111-0.068,0.222-0.128,0.324-0.196c0.247-0.145,0.247-0.153,0.043-0.315c-0.256-0.205-0.486-0.418-0.631-0.657
			C20.864,18.703,20.89,18.66,21.188,18.558L21.188,18.558z M31.16,21.953c0.793-0.46,2.073-0.46,2.866,0
			c0.793,0.461,0.802,1.203,0.008,1.663c-0.785,0.461-2.072,0.461-2.866,0C30.375,23.156,30.366,22.414,31.16,21.953L31.16,21.953z
			 M16.045,13.227c0.793-0.461,2.073-0.461,2.874,0c0.793,0.461,0.802,1.203,0.008,1.663c-0.785,0.461-2.073,0.461-2.866,0
			C15.26,14.43,15.251,13.688,16.045,13.227L16.045,13.227z M5.306,16.784l22.63,13.059c1.305,0.759,3.429,0.759,4.726,0
			l12.121-7.046c1.297-0.759,1.297-1.987-0.008-2.738L22.144,6.992c-1.305-0.759-3.429-0.751-4.734,0L5.288,14.046
			C3.992,14.797,4,16.025,5.306,16.784L5.306,16.784z M10.219,14.012c-0.145-0.085-0.299-0.153-0.461-0.222L17,9.584
			c0.111,0.094,0.239,0.179,0.384,0.265c1.322,0.768,3.471,0.759,4.785,0c0.154-0.085,0.282-0.179,0.392-0.282l17.623,10.176
			c-0.239,0.085-0.452,0.179-0.657,0.299c-1.322,0.768-1.314,2.005,0.017,2.772c0.204,0.119,0.427,0.213,0.665,0.299l-7.31,4.248
			c-0.145-0.136-0.316-0.264-0.52-0.384c-1.331-0.768-3.472-0.768-4.786,0c-0.102,0.06-0.187,0.12-0.273,0.188L9.75,17.014
			c0.171-0.068,0.333-0.145,0.478-0.231C11.549,16.025,11.541,14.779,10.219,14.012L10.219,14.012z M4.717,19.394
			c0.571-0.299,1.467-0.256,2.021,0.068L30.384,33.11l12.787-7.43c0.554-0.324,1.459-0.324,2.013,0
			c0.563,0.324,0.563,0.844,0.008,1.168l-13.588,7.899c-0.665,0.384-1.749,0.384-2.414,0l-0.478-0.273l-0.333-0.196L4.666,20.597
			C4.094,20.256,4.103,19.71,4.717,19.394L4.717,19.394z M45.217,31.123l-13.588,7.899c-0.666,0.384-1.749,0.384-2.414,0
			l-0.478-0.273l-0.341-0.196L4.691,24.862c-0.58-0.333-0.563-0.879,0.052-1.203c0.571-0.299,1.467-0.256,2.021,0.068l23.645,13.648
			l12.778-7.421c0.554-0.324,1.459-0.324,2.021,0C45.763,30.278,45.772,30.799,45.217,31.123L45.217,31.123z M4.717,27.933
			c0.571-0.299,1.467-0.256,2.021,0.068l23.645,13.656l12.787-7.438c0.554-0.324,1.459-0.324,2.013,0
			c0.563,0.324,0.563,0.845,0.008,1.168l-13.588,7.899c-0.665,0.384-1.749,0.384-2.414,0l-0.478-0.273l-0.333-0.196L4.666,29.135
			C4.094,28.803,4.103,28.257,4.717,27.933L4.717,27.933z M45.217,39.661"/>
	</g>
</g>
</svg>
