<?xml version="1.0" encoding="utf-8"?>
<!-- Generator: Adobe Illustrator 17.0.0, SVG Export Plug-In . SVG Version: 6.00 Build 0)  -->
<!DOCTYPE svg PUBLIC "-//W3C//DTD SVG 1.1//EN" "http://www.w3.org/Graphics/SVG/1.1/DTD/svg11.dtd">
<svg version="1.1" id="Layer_1" xmlns="http://www.w3.org/2000/svg" xmlns:xlink="http://www.w3.org/1999/xlink" x="0px" y="0px"
	 width="50px" height="50px" viewBox="0 0 50 50" enable-background="new 0 0 50 50" xml:space="preserve">
<g>
	<g id="language">
		<path fill="#323233" d="M25,2.71C12.74,2.71,2.709,12.74,2.709,25S12.74,47.29,25,47.29S47.29,37.26,47.29,25S37.26,2.71,25,2.71z
			 M40.38,16.084h-6.464c-0.669-2.898-1.783-5.35-3.121-8.025C34.808,9.62,38.374,12.294,40.38,16.084z M25,7.168
			c1.783,2.675,3.344,5.573,4.235,8.916h-8.47C21.656,12.963,23.217,9.842,25,7.168z M7.836,29.458
			C7.39,28.121,7.168,26.56,7.168,25s0.223-3.121,0.669-4.458h7.579c-0.223,1.56-0.223,2.898-0.223,4.458s0.223,2.898,0.223,4.458
			H7.836z M9.62,33.916h6.464c0.669,2.898,1.783,5.35,3.121,8.025C15.192,40.38,11.626,37.706,9.62,33.916z M16.084,16.084H9.62
			c2.229-3.789,5.573-6.464,9.585-8.025C17.867,10.734,16.753,13.186,16.084,16.084z M25,42.832
			c-1.783-2.675-3.344-5.573-4.235-8.916h8.47C28.344,37.037,26.783,40.158,25,42.832z M30.127,29.458H19.873
			c-0.223-1.56-0.446-2.898-0.446-4.458s0.223-2.898,0.446-4.458H30.35c0.223,1.56,0.446,2.898,0.446,4.458
			C30.796,26.56,30.35,27.898,30.127,29.458z M30.796,41.941c1.337-2.452,2.452-5.127,3.121-8.025h6.464
			C38.374,37.706,34.808,40.38,30.796,41.941z M34.808,29.458c0.223-1.56,0.223-2.898,0.223-4.458s-0.223-2.898-0.223-4.458h7.579
			c0.446,1.337,0.669,2.898,0.669,4.458s-0.223,3.121-0.669,4.458H34.808z"/>
	</g>
</g>
</svg>
