<?xml version="1.0" encoding="utf-8"?>
<!-- Generator: Adobe Illustrator 17.0.0, SVG Export Plug-In . SVG Version: 6.00 Build 0)  -->
<!DOCTYPE svg PUBLIC "-//W3C//DTD SVG 1.1//EN" "http://www.w3.org/Graphics/SVG/1.1/DTD/svg11.dtd">
<svg version="1.1" id="Layer_1" xmlns="http://www.w3.org/2000/svg" xmlns:xlink="http://www.w3.org/1999/xlink" x="0px" y="0px"
	 width="50px" height="50px" viewBox="0 0 50 50" enable-background="new 0 0 50 50" xml:space="preserve">
<g>
	<path fill="#FFFFFF" d="M43.244,4.567H6.756c-2.408,0-4.379,1.97-4.379,4.379s1.97,4.379,4.379,4.379h36.488
		c2.408,0,4.379-1.97,4.379-4.379S45.652,4.567,43.244,4.567z"/>
	<path fill="#FFFFFF" d="M43.244,20.621H6.756c-2.408,0-4.379,1.97-4.379,4.379s1.97,4.379,4.379,4.379h36.488
		c2.408,0,4.379-1.97,4.379-4.379S45.652,20.621,43.244,20.621z"/>
	<path fill="#FFFFFF" d="M43.244,36.676H6.756c-2.408,0-4.379,1.97-4.379,4.378c0,2.408,1.97,4.379,4.379,4.379h36.488
		c2.408,0,4.379-1.97,4.379-4.379C47.622,38.646,45.652,36.676,43.244,36.676z"/>
</g>
</svg>
