<?xml version="1.0" encoding="utf-8"?>
<!-- Generator: Adobe Illustrator 17.0.0, SVG Export Plug-In . SVG Version: 6.00 Build 0)  -->
<!DOCTYPE svg PUBLIC "-//W3C//DTD SVG 1.1//EN" "http://www.w3.org/Graphics/SVG/1.1/DTD/svg11.dtd">
<svg version="1.1" id="Layer_1" xmlns="http://www.w3.org/2000/svg" xmlns:xlink="http://www.w3.org/1999/xlink" x="0px" y="0px"
	 width="50px" height="50px" viewBox="0 0 50 50" enable-background="new 0 0 50 50" xml:space="preserve">
<g>
	<g>
		<path fill="#03A9F5" d="M24.987,21.702c0.672,0,1.218,0.546,1.218,1.218c0,0.673,0.545,1.218,1.218,1.218
			c0.673,0,1.218-0.545,1.218-1.218c0-1.581-1.015-2.918-2.423-3.426V17.69c0-0.673-0.545-1.218-1.218-1.218
			c-0.673,0-1.218,0.545-1.218,1.218v1.796c-1.422,0.501-2.45,1.843-2.45,3.434c0,2.015,1.639,3.655,3.655,3.655
			c0.672,0,1.218,0.546,1.218,1.218c0,0.672-0.546,1.218-1.218,1.218c-0.672,0-1.218-0.546-1.218-1.218
			c0-0.674-0.545-1.218-1.218-1.218c-0.674,0-1.218,0.545-1.218,1.218c0,1.591,1.028,2.933,2.45,3.434v1.082
			c0,0.673,0.545,1.218,1.218,1.218c0.673,0,1.218-0.545,1.218-1.218v-1.09c1.408-0.508,2.423-1.845,2.423-3.426
			c0-2.015-1.64-3.655-3.655-3.655c-0.672,0-1.218-0.546-1.218-1.218C23.769,22.248,24.315,21.702,24.987,21.702L24.987,21.702z
			 M24.987,21.702"/>
		<path fill="#03A9F5" d="M36.401,37.486l-1.36-2.039c-0.408-0.609-1.271-0.735-1.835-0.225c-2.247,2.05-5.162,3.179-8.206,3.179
			c0-0.245,0-1.462,0-1.217c0-0.905-0.953-1.494-1.763-1.09l-6.092,3.654c-0.898,0.449-0.898,1.73,0,2.179l6.092,3.734
			C24.047,46.067,25,45.478,25,44.572c0-0.245,0-1.462,0-1.216c4.117,0,8.09-1.571,11.188-4.276
			C36.65,38.677,36.74,37.995,36.401,37.486L36.401,37.486z M36.401,37.486"/>
		<path fill="#03A9F5" d="M13.905,23.237l-3.653-6.091c-0.449-0.898-1.73-0.898-2.179,0l-3.735,6.091
			C3.934,24.047,4.523,25,5.428,25c0.246,0,1.543,0,1.298,0c0,4.117,1.489,8.09,4.195,11.188c0.402,0.462,1.084,0.552,1.593,0.213
			l2.04-1.36c0.625-0.418,0.723-1.29,0.224-1.834c-2.05-2.247-3.179-5.163-3.179-8.207c0.245,0,1.462,0,1.216,0
			C13.721,25,14.31,24.047,13.905,23.237L13.905,23.237z M13.905,23.237"/>
		<path fill="#03A9F5" d="M16.794,14.778c2.247-2.05,5.162-3.179,8.206-3.179c0,0.245,0,1.462,0,1.217
			c0,0.905,0.953,1.494,1.763,1.089l6.092-3.653c0.898-0.449,0.898-1.73,0-2.179l-6.092-3.734C25.953,3.934,25,4.523,25,5.428
			c0,0.245,0,1.543,0,1.298c-4.117,0-8.09,1.49-11.188,4.195c-0.462,0.402-0.552,1.084-0.213,1.593l1.36,2.039
			C15.373,15.172,16.241,15.281,16.794,14.778L16.794,14.778z M16.794,14.778"/>
		<path fill="#03A9F5" d="M41.927,32.854l3.735-6.091c0.405-0.81-0.184-1.763-1.09-1.763c-0.246,0-1.543,0-1.298,0
			c0-4.116-1.49-8.09-4.195-11.188c-0.401-0.463-1.083-0.554-1.593-0.213l-2.039,1.36c-0.62,0.416-0.726,1.283-0.225,1.835
			c2.05,2.247,3.179,5.162,3.179,8.206c-0.245,0-1.462,0-1.217,0c-0.906,0-1.495,0.953-1.09,1.763l3.653,6.091
			C40.197,33.752,41.478,33.752,41.927,32.854L41.927,32.854z M41.927,32.854"/>
	</g>
</g>
</svg>
