<?xml version="1.0" encoding="utf-8"?>
<!-- Generator: Adobe Illustrator 17.0.0, SVG Export Plug-In . SVG Version: 6.00 Build 0)  -->
<!DOCTYPE svg PUBLIC "-//W3C//DTD SVG 1.1//EN" "http://www.w3.org/Graphics/SVG/1.1/DTD/svg11.dtd">
<svg version="1.1" id="Layer_1" xmlns="http://www.w3.org/2000/svg" xmlns:xlink="http://www.w3.org/1999/xlink" x="0px" y="0px"
	 width="50px" height="50px" viewBox="0 0 50 50" enable-background="new 0 0 50 50" xml:space="preserve">
<g>
	<path fill="#03A9F5" d="M25.788,5.083c0.704,0.099,1.413,0.17,2.111,0.3c2.923,0.545,5.492,1.821,7.7,3.811
		c2.647,2.387,4.324,5.335,5.006,8.83c0.163,0.835,0.196,1.696,0.287,2.545c0.013,0.126,0.016,0.253,0.026,0.42
		c1.345,0,2.662,0,3.998,0c0,5.327,0,10.61,0,15.937c-1.335,0-2.651,0-4.015,0c0,0.674,0.006,1.306-0.001,1.937
		c-0.022,2.054-1.405,3.674-3.424,4.003c-0.254,0.041-0.517,0.038-0.776,0.038c-1.959,0.003-3.917,0.006-5.876-0.003
		c-0.256-0.001-0.417,0.064-0.57,0.291c-1.077,1.595-3.286,2.184-4.925,1.335c-1.91-0.99-2.784-3.022-2.072-4.93
		c0.54-1.448,1.596-2.361,3.13-2.596c1.598-0.244,2.904,0.334,3.857,1.646c0.156,0.215,0.31,0.294,0.57,0.293
		c1.894-0.01,3.787-0.006,5.681-0.006c0.127,0,0.254,0,0.404,0c0.009-0.104,0.02-0.178,0.021-0.252
		c0.017-5.769,0.07-11.538,0.037-17.307c-0.022-3.746-1.361-6.958-4.251-9.433c-1.755-1.503-3.786-2.424-6.082-2.731
		c-5.398-0.722-10.461,2.116-12.636,7.112c-0.69,1.584-0.977,3.253-0.951,4.996c0.047,3.137,0.014,6.276,0.015,9.414
		c0,1.88,0.001,3.76,0.001,5.641c0,0.179,0,0.357,0,0.581c-0.236,0-0.428,0-0.619,0c-2.348-0.001-4.695-0.001-7.043,0
		c-0.102,0-0.204,0.02-0.307,0.031c0-5.317,0-10.635,0-15.952c1.304,0,2.608,0,3.961,0c0-0.247-0.014-0.427,0.003-0.604
		c0.064-0.683,0.098-1.372,0.216-2.046c0.66-3.777,2.45-6.928,5.348-9.435c2.13-1.843,4.592-3.03,7.362-3.558
		c0.696-0.133,1.403-0.208,2.104-0.31C24.647,5.083,25.218,5.083,25.788,5.083z"/>
	<path fill="#03A9F5" d="M19.426,28.986c3.732,0,7.437,0,11.144,0c-0.489,1.876-2.564,3.762-5.114,3.959
		C22.701,33.158,20.156,31.325,19.426,28.986z"/>
	<path fill="#03A9F5" d="M21.015,21.016c1.112-0.006,2.003,0.884,1.997,1.995c-0.006,1.088-0.894,1.981-1.978,1.987
		c-1.087,0.006-2.015-0.921-2.008-2.008C19.033,21.904,19.922,21.022,21.015,21.016z"/>
	<path fill="#03A9F5" d="M27.004,23.014c-0.001-1.109,0.894-1.998,2.006-1.991c1.081,0.007,1.981,0.906,1.984,1.986
		c0.003,1.09-0.92,2.004-2.016,1.996C27.892,24.996,27.005,24.102,27.004,23.014z"/>
</g>
</svg>
