<?xml version="1.0" encoding="utf-8"?>
<!-- Generator: Adobe Illustrator 17.0.0, SVG Export Plug-In . SVG Version: 6.00 Build 0)  -->
<!DOCTYPE svg PUBLIC "-//W3C//DTD SVG 1.1//EN" "http://www.w3.org/Graphics/SVG/1.1/DTD/svg11.dtd">
<svg version="1.1" id="Layer_1" xmlns="http://www.w3.org/2000/svg" xmlns:xlink="http://www.w3.org/1999/xlink" x="0px" y="0px"
	 width="80px" height="80px" viewBox="0 0 80 80" enable-background="new 0 0 80 80" xml:space="preserve">
<g>
	<g>
		<path fill="#FF9AA3" d="M11.071,52.506c-0.378-0.887-1.412-1.294-2.3-0.916c-0.888,0.378-1.296,1.411-0.917,2.298
			c0.291,0.654,0.931,1.061,1.601,1.061c0.233,0,0.466-0.043,0.698-0.145C11.041,54.411,11.449,53.393,11.071,52.506L11.071,52.506z
			 M11.071,52.506"/>
		<path fill="#FF9AA3" d="M9.149,46.428c-0.189-0.945-1.12-1.556-2.067-1.352c-0.946,0.203-1.557,1.105-1.354,2.05
			c0.175,0.829,0.903,1.396,1.704,1.396c0.116,0,0.233-0.015,0.35-0.044C8.742,48.289,9.338,47.359,9.149,46.428L9.149,46.428z
			 M9.149,46.428"/>
		<path fill="#FF9AA3" d="M22.44,13.494c0.32,0,0.641-0.087,0.932-0.261c0.815-0.509,1.062-1.585,0.553-2.399
			c-0.509-0.815-1.586-1.062-2.402-0.553c-0.815,0.509-1.062,1.585-0.553,2.399C21.289,13.203,21.857,13.494,22.44,13.494
			L22.44,13.494z M22.44,13.494"/>
		<path fill="#FF9AA3" d="M17.112,17.623c0.437,0,0.859-0.16,1.208-0.48c0.699-0.669,0.728-1.774,0.058-2.472
			c-0.669-0.698-1.776-0.727-2.475-0.058c-0.698,0.669-0.728,1.774-0.058,2.472C16.18,17.434,16.646,17.623,17.112,17.623
			L17.112,17.623z M17.112,17.623"/>
		<path fill="#FF9AA3" d="M6.747,41.819c0.961,0,1.747-0.785,1.747-1.745c0-0.014,0-0.014,0-0.029c0-0.014,0-0.029,0-0.043
			c0-0.959-0.785-1.745-1.747-1.745C5.786,38.256,5,39.042,5,40.001c0,0.015,0,0.029,0,0.043c0,0.015,0,0.029,0,0.044
			C5,41.048,5.786,41.819,6.747,41.819L6.747,41.819z M6.747,41.819"/>
		<path fill="#FF9AA3" d="M15.889,62.975c-0.67,0.698-0.641,1.803,0.073,2.472c0.335,0.32,0.772,0.479,1.208,0.479
			c0.466,0,0.931-0.189,1.266-0.552c0.669-0.698,0.641-1.803-0.073-2.472C17.665,62.248,16.558,62.277,15.889,62.975L15.889,62.975z
			 M15.889,62.975"/>
		<path fill="#FF9AA3" d="M7.067,35.014c0.116,0.029,0.233,0.044,0.35,0.044c0.815,0,1.543-0.567,1.703-1.396
			c0.189-0.945-0.422-1.861-1.369-2.065c-0.946-0.189-1.863,0.422-2.067,1.367C5.525,33.894,6.136,34.81,7.067,35.014L7.067,35.014z
			 M7.067,35.014"/>
		<path fill="#FF9AA3" d="M70.215,30.52c0.233,0.742,0.917,1.222,1.66,1.222c0.175,0,0.35-0.029,0.524-0.087
			c0.917-0.291,1.427-1.265,1.136-2.181c-0.291-0.916-1.266-1.425-2.184-1.135C70.449,28.63,69.924,29.605,70.215,30.52
			L70.215,30.52z M70.215,30.52"/>
		<path fill="#FF9AA3" d="M41.669,8.492c0.03,0,0.058,0,0.087,0c0.932,0,1.704-0.727,1.747-1.657
			c0.044-0.96-0.698-1.789-1.659-1.833C40.883,4.959,40.068,5.7,40.01,6.66C39.966,7.619,40.709,8.434,41.669,8.492L41.669,8.492z
			 M41.669,8.492"/>
		<path fill="#FF9AA3" d="M47.987,9.437c0.146,0.044,0.291,0.058,0.437,0.058c0.772,0,1.484-0.523,1.688-1.309
			c0.248-0.931-0.32-1.89-1.252-2.123c-0.932-0.247-1.892,0.319-2.125,1.25C46.487,8.245,47.055,9.204,47.987,9.437L47.987,9.437z
			 M47.987,9.437"/>
		<path fill="#FF9AA3" d="M73.069,34.854c-0.961,0.101-1.66,0.945-1.558,1.905c0.087,0.902,0.844,1.571,1.732,1.571
			c0.058,0,0.117,0,0.174-0.014c0.961-0.102,1.66-0.96,1.558-1.92C74.889,35.464,74.03,34.767,73.069,34.854L73.069,34.854z
			 M73.069,34.854"/>
		<path fill="#FF9AA3" d="M23.43,66.814c-0.816-0.509-1.892-0.262-2.402,0.567c-0.509,0.815-0.262,1.89,0.567,2.399
			c0.291,0.175,0.612,0.262,0.917,0.262c0.582,0,1.15-0.291,1.484-0.829C24.492,68.398,24.245,67.323,23.43,66.814L23.43,66.814z
			 M23.43,66.814"/>
		<path fill="#FF9AA3" d="M35.017,8.826c0.087,0,0.174,0,0.262-0.015c0.946-0.145,1.601-1.032,1.456-1.992
			C36.589,5.86,35.701,5.22,34.74,5.365c-0.961,0.145-1.616,1.033-1.47,1.992C33.43,8.216,34.172,8.826,35.017,8.826L35.017,8.826z
			 M35.017,8.826"/>
		<path fill="#FF9AA3" d="M8.756,28.47c0.218,0.102,0.451,0.145,0.684,0.145c0.67,0,1.325-0.392,1.601-1.061
			c0.379-0.888-0.029-1.905-0.917-2.298c-0.888-0.378-1.922,0.029-2.3,0.916C7.446,27.075,7.868,28.093,8.756,28.47L8.756,28.47z
			 M8.756,28.47"/>
		<path fill="#FF9AA3" d="M11.711,22.422c0.306,0.204,0.655,0.305,1.004,0.305c0.554,0,1.092-0.261,1.441-0.741
			c0.553-0.785,0.364-1.876-0.437-2.428c-0.786-0.553-1.878-0.364-2.431,0.436C10.736,20.778,10.925,21.869,11.711,22.422
			L11.711,22.422z M11.711,22.422"/>
		<path fill="#FF9AA3" d="M11.755,57.654c-0.786,0.552-0.975,1.643-0.422,2.428c0.335,0.48,0.889,0.741,1.427,0.741
			c0.349,0,0.699-0.102,1.004-0.32c0.786-0.553,0.989-1.643,0.422-2.429C13.633,57.29,12.541,57.101,11.755,57.654L11.755,57.654z
			 M11.755,57.654"/>
		<path fill="#FF9AA3" d="M69.226,25.562c0.291,0,0.582-0.073,0.844-0.218c0.845-0.465,1.15-1.527,0.67-2.37
			c-0.466-0.844-1.528-1.149-2.373-0.669c-0.845,0.466-1.15,1.527-0.67,2.37C68.017,25.228,68.614,25.562,69.226,25.562
			L69.226,25.562z M69.226,25.562"/>
		<path fill="#FF9AA3" d="M66.547,60.328c-0.728-0.625-1.834-0.538-2.46,0.189c-0.626,0.727-0.538,1.832,0.189,2.457
			c0.334,0.276,0.728,0.422,1.135,0.422c0.495,0,0.99-0.204,1.325-0.611C67.362,62.059,67.275,60.954,66.547,60.328L66.547,60.328z
			 M66.547,60.328"/>
		<path fill="#FF9AA3" d="M65.354,20.037c0.407,0,0.815-0.145,1.135-0.422c0.728-0.625,0.815-1.73,0.189-2.457
			c-0.626-0.727-1.732-0.815-2.46-0.189c-0.728,0.625-0.815,1.73-0.19,2.457C64.378,19.833,64.873,20.037,65.354,20.037
			L65.354,20.037z M65.354,20.037"/>
		<path fill="#FF9AA3" d="M73.418,41.601c-0.961-0.087-1.82,0.611-1.907,1.57c-0.102,0.96,0.612,1.818,1.572,1.905
			c0.058,0,0.116,0.014,0.174,0.014c0.888,0,1.645-0.669,1.732-1.571C75.092,42.546,74.379,41.688,73.418,41.601L73.418,41.601z
			 M73.418,41.601"/>
		<path fill="#FF9AA3" d="M28.495,10.513c0.204,0,0.408-0.029,0.612-0.116c0.902-0.335,1.368-1.338,1.033-2.239
			c-0.335-0.902-1.34-1.367-2.242-1.032c-0.902,0.334-1.369,1.338-1.034,2.239C27.112,10.077,27.782,10.513,28.495,10.513
			L28.495,10.513z M28.495,10.513"/>
		<path fill="#FF9AA3" d="M70.099,54.6c-0.844-0.466-1.907-0.161-2.373,0.683c-0.466,0.844-0.16,1.905,0.685,2.37
			c0.262,0.145,0.553,0.218,0.844,0.218c0.612,0,1.208-0.32,1.528-0.902C71.249,56.127,70.943,55.065,70.099,54.6L70.099,54.6z
			 M70.099,54.6"/>
		<path fill="#FF9AA3" d="M72.428,48.275c-0.917-0.291-1.892,0.218-2.184,1.148c-0.291,0.916,0.233,1.89,1.15,2.181
			c0.174,0.058,0.349,0.073,0.524,0.073c0.742,0,1.441-0.479,1.674-1.221C73.87,49.525,73.345,48.551,72.428,48.275L72.428,48.275z
			 M72.428,48.275"/>
		<path fill="#FF9AA3" d="M59.458,64.924c-0.757,0.596-0.903,1.687-0.306,2.442c0.35,0.451,0.859,0.669,1.383,0.669
			c0.379,0,0.757-0.116,1.077-0.364c0.757-0.596,0.903-1.687,0.306-2.442C61.307,64.472,60.215,64.342,59.458,64.924L59.458,64.924z
			 M59.458,64.924"/>
		<path fill="#FF9AA3" d="M41.742,71.51c-0.961,0.058-1.703,0.872-1.66,1.832C40.126,74.273,40.898,75,41.829,75
			c0.029,0,0.058,0,0.088,0c0.961-0.043,1.703-0.872,1.659-1.832C43.533,72.208,42.703,71.467,41.742,71.51L41.742,71.51z
			 M41.742,71.51"/>
		<path fill="#FF9AA3" d="M35.351,71.205c-0.946-0.145-1.848,0.509-1.98,1.468c-0.146,0.945,0.509,1.847,1.47,1.977
			c0.088,0.015,0.175,0.015,0.262,0.015c0.845,0,1.601-0.625,1.718-1.484C36.968,72.237,36.298,71.351,35.351,71.205L35.351,71.205z
			 M35.351,71.205"/>
		<path fill="#FF9AA3" d="M29.165,69.62c-0.902-0.334-1.907,0.131-2.241,1.032c-0.335,0.902,0.13,1.905,1.033,2.239
			c0.204,0.073,0.407,0.102,0.597,0.102c0.713,0,1.383-0.436,1.645-1.149C30.533,70.958,30.068,69.955,29.165,69.62L29.165,69.62z
			 M29.165,69.62"/>
		<path fill="#FF9AA3" d="M48.045,70.536c-0.932,0.247-1.5,1.192-1.252,2.123c0.203,0.785,0.917,1.309,1.688,1.309
			c0.146,0,0.291-0.015,0.437-0.058c0.932-0.247,1.499-1.192,1.252-2.123C49.938,70.856,48.992,70.304,48.045,70.536L48.045,70.536z
			 M48.045,70.536"/>
		<path fill="#FF9AA3" d="M54.043,68.311c-0.873,0.422-1.223,1.468-0.801,2.341c0.306,0.611,0.917,0.975,1.572,0.975
			c0.262,0,0.524-0.058,0.771-0.175c0.873-0.421,1.223-1.468,0.801-2.341C55.949,68.239,54.902,67.889,54.043,68.311L54.043,68.311z
			 M54.043,68.311"/>
		<path fill="#FF9AA3" d="M53.97,11.662c0.248,0.117,0.509,0.174,0.772,0.174c0.641,0,1.266-0.364,1.572-0.974
			c0.422-0.872,0.073-1.905-0.801-2.341c-0.873-0.422-1.907-0.073-2.343,0.8C52.747,10.179,53.111,11.226,53.97,11.662L53.97,11.662
			z M53.97,11.662"/>
		<path fill="#FF9AA3" d="M59.4,15.035c0.32,0.248,0.698,0.364,1.062,0.364c0.525,0,1.034-0.232,1.383-0.683
			c0.597-0.756,0.452-1.862-0.306-2.443c-0.757-0.596-1.863-0.451-2.445,0.306C58.497,13.348,58.642,14.439,59.4,15.035L59.4,15.035
			z M59.4,15.035"/>
	</g>
	<ellipse fill="#FFCDD1" cx="40" cy="40" rx="28.384" ry="28.352"/>
	<path fill="#FF3648" d="M33.373,29.122c-1.171-1.171-3.077-1.171-4.249,0c-1.171,1.17-1.171,3.074,0,4.243l6.644,6.637
		l-6.644,6.637c-1.171,1.171-1.171,3.074,0,4.244c0.577,0.576,1.347,0.873,2.117,0.873c0.768,0,1.538-0.298,2.115-0.873L40,44.246
		l6.644,6.637c0.576,0.576,1.346,0.873,2.115,0.873c0.77,0,1.539-0.298,2.115-0.873c1.172-1.171,1.172-3.074,0-4.244l-6.644-6.637
		l6.644-6.637c1.172-1.17,1.172-3.074,0-4.243c-1.171-1.171-3.077-1.171-4.248,0l-6.644,6.637L33.373,29.122z M33.373,29.122"/>
</g>
</svg>
