<?xml version="1.0" encoding="utf-8"?>
<!-- Generator: Adobe Illustrator 17.0.0, SVG Export Plug-In . SVG Version: 6.00 Build 0)  -->
<!DOCTYPE svg PUBLIC "-//W3C//DTD SVG 1.1//EN" "http://www.w3.org/Graphics/SVG/1.1/DTD/svg11.dtd">
<svg version="1.1" id="Layer_1" xmlns="http://www.w3.org/2000/svg" xmlns:xlink="http://www.w3.org/1999/xlink" x="0px" y="0px"
	 width="80px" height="80px" viewBox="0 0 80 80" enable-background="new 0 0 80 80" xml:space="preserve">
<g>
	<g>
		<path fill="#90BAFF" d="M11.23,52.451c-0.376-0.883-1.405-1.288-2.287-0.912c-0.883,0.376-1.289,1.405-0.912,2.287
			c0.29,0.651,0.926,1.056,1.592,1.056c0.231,0,0.463-0.043,0.694-0.145C11.2,54.347,11.606,53.334,11.23,52.451L11.23,52.451z"/>
		<path fill="#90BAFF" d="M9.318,46.4c-0.188-0.941-1.114-1.549-2.055-1.346c-0.941,0.202-1.549,1.1-1.347,2.041
			c0.174,0.825,0.898,1.39,1.694,1.39c0.115,0,0.232-0.014,0.348-0.044C8.914,48.253,9.507,47.326,9.318,46.4L9.318,46.4z"/>
		<path fill="#90BAFF" d="M22.536,13.61c0.318,0,0.637-0.087,0.926-0.26c0.811-0.507,1.056-1.578,0.55-2.389
			c-0.507-0.811-1.577-1.056-2.389-0.55c-0.81,0.507-1.056,1.578-0.549,2.389C21.392,13.321,21.957,13.61,22.536,13.61L22.536,13.61
			z"/>
		<path fill="#90BAFF" d="M17.237,17.722c0.434,0,0.854-0.159,1.201-0.478c0.695-0.666,0.724-1.766,0.058-2.461
			c-0.665-0.695-1.765-0.724-2.46-0.057c-0.695,0.665-0.724,1.765-0.058,2.461C16.311,17.533,16.774,17.722,17.237,17.722
			L17.237,17.722z"/>
		<path fill="#90BAFF" d="M6.93,41.811c0.956,0,1.737-0.782,1.737-1.737c0-0.014,0-0.014,0-0.029c0-0.014,0-0.029,0-0.043
			c0-0.955-0.781-1.737-1.737-1.737c-0.955,0-1.737,0.782-1.737,1.737c0,0.014,0,0.029,0,0.043c0,0.015,0,0.029,0,0.044
			C5.193,41.043,5.975,41.811,6.93,41.811L6.93,41.811z"/>
		<path fill="#90BAFF" d="M16.021,62.874c-0.666,0.694-0.637,1.795,0.072,2.461c0.333,0.318,0.767,0.477,1.202,0.477
			c0.463,0,0.926-0.188,1.259-0.55c0.666-0.695,0.637-1.795-0.072-2.461C17.787,62.15,16.687,62.179,16.021,62.874L16.021,62.874z"
			/>
		<path fill="#90BAFF" d="M7.249,35.036c0.115,0.029,0.232,0.044,0.348,0.044c0.81,0,1.534-0.565,1.694-1.39
			c0.188-0.941-0.42-1.853-1.361-2.056c-0.941-0.188-1.853,0.42-2.055,1.361C5.714,33.921,6.322,34.833,7.249,35.036L7.249,35.036z"
			/>
		<path fill="#90BAFF" d="M70.047,30.562c0.232,0.739,0.912,1.216,1.651,1.216c0.174,0,0.348-0.029,0.521-0.087
			c0.912-0.29,1.419-1.259,1.13-2.171c-0.29-0.912-1.259-1.419-2.171-1.13C70.279,28.68,69.758,29.651,70.047,30.562L70.047,30.562z
			"/>
		<path fill="#90BAFF" d="M41.659,8.63c0.029,0,0.058,0,0.087,0c0.927,0,1.694-0.724,1.737-1.65c0.044-0.956-0.694-1.781-1.65-1.825
			c-0.956-0.043-1.767,0.695-1.825,1.651C39.965,7.762,40.704,8.573,41.659,8.63L41.659,8.63z"/>
		<path fill="#90BAFF" d="M47.942,9.571c0.145,0.044,0.29,0.058,0.434,0.058c0.767,0,1.476-0.521,1.679-1.303
			c0.246-0.927-0.318-1.882-1.245-2.113c-0.927-0.246-1.882,0.318-2.114,1.245C46.451,8.385,47.015,9.34,47.942,9.571L47.942,9.571z
			"/>
		<path fill="#90BAFF" d="M72.885,34.877c-0.956,0.101-1.651,0.941-1.549,1.896c0.087,0.898,0.84,1.564,1.723,1.564
			c0.058,0,0.116,0,0.173-0.014c0.956-0.102,1.651-0.956,1.549-1.911C74.695,35.484,73.84,34.79,72.885,34.877L72.885,34.877z"/>
		<path fill="#90BAFF" d="M23.52,66.696c-0.811-0.507-1.882-0.261-2.389,0.564c-0.507,0.811-0.261,1.882,0.564,2.389
			c0.29,0.174,0.608,0.261,0.912,0.261c0.579,0,1.144-0.29,1.476-0.825C24.577,68.273,24.331,67.203,23.52,66.696L23.52,66.696z"/>
		<path fill="#90BAFF" d="M35.043,8.964c0.087,0,0.174,0,0.26-0.014c0.941-0.145,1.592-1.028,1.448-1.984
			c-0.145-0.955-1.028-1.592-1.983-1.448c-0.955,0.145-1.607,1.028-1.462,1.984C33.466,8.356,34.204,8.964,35.043,8.964
			L35.043,8.964z"/>
		<path fill="#90BAFF" d="M8.928,28.521c0.217,0.102,0.449,0.145,0.68,0.145c0.666,0,1.318-0.391,1.592-1.056
			c0.377-0.884-0.029-1.897-0.912-2.287c-0.883-0.376-1.911,0.029-2.287,0.912C7.625,27.132,8.045,28.145,8.928,28.521L8.928,28.521
			z"/>
		<path fill="#90BAFF" d="M11.867,22.499c0.304,0.203,0.651,0.304,0.998,0.304c0.55,0,1.086-0.26,1.433-0.738
			c0.55-0.782,0.362-1.868-0.434-2.417c-0.782-0.55-1.868-0.362-2.417,0.434C10.897,20.863,11.085,21.949,11.867,22.499
			L11.867,22.499z"/>
		<path fill="#90BAFF" d="M11.91,57.576c-0.782,0.55-0.97,1.635-0.42,2.417c0.333,0.478,0.884,0.738,1.419,0.738
			c0.347,0,0.695-0.101,0.999-0.318c0.782-0.55,0.984-1.636,0.42-2.418C13.778,57.214,12.692,57.025,11.91,57.576L11.91,57.576z"/>
		<path fill="#90BAFF" d="M69.063,25.626c0.29,0,0.579-0.072,0.839-0.217c0.84-0.463,1.144-1.52,0.666-2.359
			c-0.464-0.84-1.52-1.144-2.36-0.666c-0.84,0.464-1.144,1.52-0.666,2.36C67.861,25.293,68.455,25.626,69.063,25.626L69.063,25.626z
			"/>
		<path fill="#90BAFF" d="M66.399,60.239c-0.724-0.622-1.824-0.535-2.447,0.189c-0.622,0.724-0.535,1.824,0.188,2.447
			c0.333,0.275,0.724,0.42,1.129,0.42c0.492,0,0.985-0.203,1.318-0.608C67.21,61.962,67.123,60.862,66.399,60.239L66.399,60.239z"/>
		<path fill="#90BAFF" d="M65.213,20.125c0.405,0,0.81-0.145,1.129-0.42c0.724-0.622,0.81-1.722,0.188-2.446
			c-0.623-0.724-1.723-0.811-2.447-0.188c-0.724,0.623-0.811,1.723-0.189,2.447C64.242,19.922,64.735,20.125,65.213,20.125
			L65.213,20.125z"/>
		<path fill="#90BAFF" d="M73.232,41.594c-0.955-0.087-1.81,0.608-1.896,1.563c-0.101,0.956,0.608,1.81,1.564,1.897
			c0.058,0,0.115,0.014,0.174,0.014c0.883,0,1.636-0.666,1.723-1.564C74.897,42.535,74.188,41.68,73.232,41.594L73.232,41.594z"/>
		<path fill="#90BAFF" d="M28.558,10.643c0.203,0,0.406-0.029,0.608-0.115c0.897-0.333,1.36-1.332,1.028-2.23
			c-0.333-0.898-1.332-1.361-2.23-1.028c-0.897,0.333-1.361,1.332-1.028,2.229C27.183,10.209,27.848,10.643,28.558,10.643
			L28.558,10.643z"/>
		<path fill="#90BAFF" d="M69.932,54.536c-0.84-0.464-1.896-0.16-2.36,0.68c-0.463,0.84-0.159,1.896,0.681,2.36
			c0.26,0.145,0.55,0.217,0.839,0.217c0.608,0,1.202-0.319,1.52-0.898C71.075,56.056,70.771,54.999,69.932,54.536L69.932,54.536z"/>
		<path fill="#90BAFF" d="M72.248,48.238c-0.912-0.29-1.882,0.217-2.171,1.143c-0.29,0.912,0.232,1.882,1.144,2.171
			c0.174,0.058,0.347,0.072,0.521,0.072c0.738,0,1.433-0.477,1.665-1.215C73.681,49.483,73.16,48.513,72.248,48.238L72.248,48.238z"
			/>
		<path fill="#90BAFF" d="M59.35,64.814c-0.753,0.593-0.898,1.679-0.305,2.432c0.348,0.449,0.854,0.666,1.375,0.666
			c0.377,0,0.753-0.115,1.071-0.362c0.753-0.593,0.898-1.679,0.304-2.432C61.188,64.365,60.102,64.235,59.35,64.814L59.35,64.814z"
			/>
		<path fill="#90BAFF" d="M41.731,71.371c-0.955,0.058-1.694,0.869-1.651,1.824c0.044,0.927,0.811,1.651,1.737,1.651
			c0.029,0,0.058,0,0.087,0c0.955-0.043,1.694-0.869,1.65-1.824C43.512,72.066,42.687,71.328,41.731,71.371L41.731,71.371z"/>
		<path fill="#90BAFF" d="M35.376,71.068c-0.941-0.145-1.838,0.507-1.969,1.462c-0.145,0.941,0.507,1.839,1.462,1.969
			c0.087,0.015,0.174,0.015,0.261,0.015c0.84,0,1.592-0.623,1.708-1.477C36.984,72.095,36.317,71.212,35.376,71.068L35.376,71.068z"
			/>
		<path fill="#90BAFF" d="M29.224,69.489c-0.897-0.333-1.896,0.13-2.229,1.028c-0.333,0.898,0.13,1.897,1.028,2.23
			c0.203,0.072,0.405,0.102,0.594,0.102c0.709,0,1.375-0.434,1.636-1.144C30.585,70.822,30.121,69.823,29.224,69.489L29.224,69.489z
			"/>
		<path fill="#90BAFF" d="M48,70.402c-0.926,0.246-1.491,1.187-1.245,2.114c0.202,0.782,0.912,1.303,1.679,1.303
			c0.145,0,0.29-0.014,0.434-0.058c0.927-0.246,1.491-1.187,1.245-2.113C49.882,70.72,48.941,70.17,48,70.402L48,70.402z"/>
		<path fill="#90BAFF" d="M53.964,68.187c-0.869,0.42-1.216,1.462-0.796,2.331c0.304,0.608,0.912,0.97,1.564,0.97
			c0.26,0,0.521-0.058,0.767-0.174c0.869-0.419,1.216-1.462,0.796-2.331C55.86,68.114,54.818,67.767,53.964,68.187L53.964,68.187z"
			/>
		<path fill="#90BAFF" d="M53.892,11.787c0.246,0.116,0.507,0.173,0.767,0.173c0.637,0,1.259-0.362,1.563-0.97
			c0.42-0.869,0.072-1.896-0.796-2.331c-0.869-0.42-1.896-0.072-2.331,0.796C52.675,10.31,53.037,11.352,53.892,11.787
			L53.892,11.787z"/>
		<path fill="#90BAFF" d="M59.291,15.145c0.318,0.246,0.694,0.362,1.056,0.362c0.522,0,1.028-0.231,1.375-0.68
			c0.594-0.753,0.449-1.853-0.304-2.432c-0.753-0.593-1.853-0.449-2.432,0.305C58.394,13.466,58.538,14.551,59.291,15.145
			L59.291,15.145z"/>
	</g>
	<circle fill="#E5EFFC" cx="39.999" cy="40" r="28.227"/>
	<path fill="#0D96EF" d="M54.094,29.45c-1.226-1.225-3.219-1.225-4.445,0L35.182,43.917l-4.847-4.847
		c-1.225-1.225-3.219-1.225-4.445,0c-1.225,1.226-1.225,3.22,0,4.445l7.061,7.06c0.603,0.604,1.408,0.914,2.213,0.914
		s1.609-0.31,2.213-0.914l16.68-16.68C55.319,32.65,55.319,30.676,54.094,29.45L54.094,29.45z"/>
</g>
</svg>
