<?xml version="1.0" encoding="utf-8"?>
<!-- Generator: Adobe Illustrator 25.4.1, SVG Export Plug-In . SVG Version: 6.00 Build 0)  -->
<svg version="1.1" id="Layer_1" xmlns="http://www.w3.org/2000/svg" xmlns:xlink="http://www.w3.org/1999/xlink" x="0px" y="0px"
     viewBox="0 0 30 30" style="enable-background:new 0 0 30 30;" xml:space="preserve">
<style type="text/css">
	.st0{fill:#03a9f5;}
</style>
    <g>
	<path class="st0" d="M15.6,0c0.7,0.1,1.5,0.2,2.2,0.4C20,1,21.7,2.2,23.1,3.9c1.2,1.5,2,3.2,2.3,5.1c0.1,0.3,0.1,0.7,0.1,1
		c0,0.4-0.2,0.6-0.5,0.7c-0.3,0-0.6-0.2-0.6-0.5c-0.2-0.8-0.2-1.7-0.5-2.5c-0.8-2.5-2.4-4.3-4.7-5.5C17.6,1.3,15.8,1,14,1.2
		C11.8,1.5,9.9,2.4,8.3,4C8.1,4.2,8,4.4,7.8,4.5C7.5,4.8,7.2,4.9,6.9,4.6C6.7,4.4,6.7,4,7,3.7c0.5-0.6,1.1-1.1,1.7-1.6
		c1.6-1.2,3.4-1.9,5.4-2.1c0.1,0,0.1,0,0.2,0C14.7,0,15.2,0,15.6,0z"/>
        <path class="st0" d="M12.9,22.7c0-0.1,0-0.2,0-0.3c0-3.9,0-7.9,0-11.8c0-0.9,0.4-1.6,1.2-2c1.3-0.7,2.9,0.2,2.9,1.7
		c0,1,0,1.9,0,2.9c0,1.2,0,2.4,0,3.6c0.7,0.1,1.3,0.3,2,0.4c1.2,0.3,2.4,0.5,3.5,0.8c1.6,0.4,2.6,1.9,2.5,3.5
		c-0.1,2.6-0.3,5.2-0.4,7.8c0,0.6-0.2,0.8-0.8,0.8c-3.2,0-6.4,0-9.6,0c-0.4,0-0.6-0.1-0.8-0.5c-0.2-0.6-0.6-1-1.1-1.5
		c-1.6-1.5-3.1-3.1-4.6-4.6c-0.8-0.8-0.9-1.7-0.4-2.6c0.6-1.1,2.1-1.4,3-0.6c0.8,0.7,1.5,1.4,2.2,2.1C12.6,22.5,12.7,22.6,12.9,22.7
		C12.9,22.7,12.9,22.7,12.9,22.7z M23.5,28.8c0-0.2,0-0.5,0-0.7c0.1-2.2,0.2-4.5,0.3-6.7c0.1-1.3-0.6-2.2-1.9-2.4
		c-1.8-0.4-3.6-0.8-5.4-1.1c-0.6-0.1-0.7-0.3-0.7-0.9c0-2.1,0-4.2,0-6.3c0-0.1,0-0.2,0-0.4c0-0.4-0.4-0.8-0.8-0.8
		c-0.6,0-0.9,0.4-0.9,1c0,4.4,0,8.9,0,13.3c0,0.1,0,0.3,0,0.4c-0.1,0.2-0.2,0.4-0.4,0.5c-0.2,0.1-0.4,0.1-0.6-0.1
		c-0.1-0.1-0.1-0.1-0.2-0.2c-1-1-2-2-3-3c-0.1-0.1-0.2-0.2-0.3-0.3c-0.3-0.3-0.8-0.2-1.1,0.1c-0.3,0.3-0.4,0.8-0.1,1.1
		c0.1,0.1,0.2,0.2,0.3,0.3c1.6,1.6,3.3,3.3,4.9,4.9c0.3,0.3,0.5,0.7,0.8,1c0.1,0.2,0.2,0.2,0.4,0.2c2.8,0,5.7,0,8.5,0
		C23.3,28.8,23.4,28.8,23.5,28.8z"/>
        <path class="st0" d="M7.5,10.5c0-3.3,2-6.1,5.2-7.1c2.2-0.7,4.4-0.4,6.3,0.8c0.3,0.2,0.4,0.6,0.3,0.8c-0.2,0.3-0.5,0.4-0.9,0.1
		c-0.7-0.5-1.5-0.8-2.4-0.9c-2.6-0.5-5.5,1-6.7,3.3C8.7,9,8.5,10.4,8.8,11.9c0,0.1,0,0.2,0.1,0.3c0,0.3-0.1,0.6-0.4,0.6
		c-0.3,0.1-0.6-0.1-0.7-0.4C7.7,12,7.6,11.5,7.5,11C7.5,10.8,7.5,10.7,7.5,10.5z"/>
        <path class="st0" d="M4.5,10.5c0-1.7,0.4-3.3,1.1-4.8C5.8,5.4,6,5.3,6.3,5.3c0.3,0.1,0.5,0.3,0.5,0.5c0,0.2-0.1,0.3-0.1,0.5
		c-0.8,1.6-1.1,3.3-0.9,5.1c0.2,2.2,1,4.1,2.6,5.6c0.2,0.2,0.3,0.3,0.5,0.5c0.2,0.3,0.2,0.6,0,0.8c-0.2,0.2-0.6,0.3-0.8,0
		c-0.9-0.8-1.6-1.7-2.2-2.7C4.9,14,4.5,12.3,4.5,10.5z"/>
        <path class="st0" d="M19.7,10.5c0,1.1-0.3,2.1-1,2.9c-0.2,0.3-0.6,0.3-0.8,0.2c-0.3-0.2-0.3-0.5-0.1-0.8c0.3-0.5,0.6-0.9,0.7-1.5
		c0.4-1.9-0.9-3.9-2.8-4.2c-1-0.2-1.9,0.1-2.7,0.7c-0.1,0.1-0.2,0.1-0.3,0.2c-0.3,0.2-0.6,0.1-0.8-0.1C11.7,7.6,11.7,7.2,12,7
		c0.4-0.3,0.7-0.5,1.1-0.7C16.2,4.9,19.5,7,19.7,10.5z"/>
        <path class="st0" d="M22.5,10.5c0,2-0.7,3.7-2.1,5.2c-0.3,0.3-0.6,0.4-0.9,0.1c-0.3-0.2-0.3-0.6,0-0.9c0.8-0.9,1.4-1.9,1.6-3.1
		c0.4-1.8,0-3.5-1.1-5c-0.1-0.1-0.2-0.3-0.3-0.4c-0.1-0.2-0.1-0.5,0.2-0.7c0.2-0.2,0.5-0.2,0.7,0c0.1,0,0.1,0.1,0.2,0.2
		C22,7.2,22.5,8.8,22.5,10.5z"/>
        <path class="st0" d="M25.4,12.6c-0.2,0.6-0.4,1.2-0.6,1.8c-0.3,0.9-0.8,1.7-1.3,2.4c-0.3,0.3-0.6,0.4-0.9,0.2
		c-0.3-0.2-0.4-0.6-0.1-0.9c0.6-0.8,1-1.6,1.3-2.5c0.1-0.4,0.2-0.8,0.4-1.2c0.1-0.4,0.6-0.6,0.9-0.3C25.2,12.2,25.3,12.4,25.4,12.6z
		"/>
        <path class="st0" d="M10.3,10.5c0.1-0.5,0.2-0.9,0.3-1.4c0.1-0.4,0.4-0.6,0.7-0.5c0.3,0.1,0.5,0.4,0.4,0.8c-0.3,1-0.2,1.9,0.3,2.8
		c0.1,0.2,0.3,0.4,0.4,0.6c0.2,0.3,0.2,0.6-0.1,0.8c-0.3,0.2-0.6,0.2-0.9-0.1C10.7,12.7,10.4,11.7,10.3,10.5z"/>
        <path class="st0" d="M12.1,16.5c-0.1,0.5-0.5,0.8-0.9,0.5c-0.8-0.5-1.5-1.1-2.1-1.8c-0.1-0.2-0.3-0.3-0.4-0.5
		c-0.2-0.3-0.2-0.7,0.1-0.9c0.3-0.2,0.6-0.1,0.8,0.1c0.6,0.8,1.3,1.5,2.1,2C12,16.1,12,16.3,12.1,16.5z"/>
        <path class="st0" d="M19,28c-0.4,0-0.8,0-1.2,0c-0.4,0-0.6-0.2-0.6-0.6c0-0.3,0.2-0.6,0.6-0.6c0.8,0,1.7,0,2.5,0
		c0.4,0,0.6,0.3,0.6,0.6c0,0.3-0.3,0.6-0.7,0.6C19.8,28,19.4,28,19,28z"/>
        <path class="st0" d="M21.7,27.4c0-0.3,0.2-0.6,0.6-0.6c0.3,0,0.5,0.3,0.6,0.6c0,0.3-0.2,0.6-0.6,0.6C21.9,28,21.7,27.8,21.7,27.4z"
        />
</g>
</svg>
